<svg width="98" height="98" viewBox="0 0 98 98" fill="none" xmlns="http://www.w3.org/2000/svg">
<circle cx="49" cy="49" r="49" fill="#E5FCF4"/>
<path d="M35.0736 48.9915C40.4015 48.9915 44.7205 44.6725 44.7205 39.3446C44.7205 34.0168 40.4015 29.6978 35.0736 29.6978C29.7458 29.6978 25.4268 34.0168 25.4268 39.3446C25.4268 44.6725 29.7458 48.9915 35.0736 48.9915Z" fill="#5EB696"/>
<path d="M46.0543 54.3506C42.2813 52.4346 38.1171 51.6709 35.0676 51.6709C29.0946 51.6709 16.8457 55.334 16.8457 62.6576V68.285H36.9434V66.1318C36.9434 63.5861 38.0152 61.0337 39.891 58.9061C41.3876 57.2071 43.4831 55.6301 46.0543 54.3506Z" fill="#5EB696"/>
<path d="M60.259 53.2788C53.2824 53.2788 39.3574 57.5877 39.3574 66.1413V72.5726H81.1605V66.1413C81.1605 57.5877 67.2355 53.2788 60.259 53.2788Z" fill="#5EB696"/>
<path d="M60.2594 48.9909C66.7712 48.9909 72.05 43.7121 72.05 37.2003C72.05 30.6885 66.7712 25.4097 60.2594 25.4097C53.7476 25.4097 48.4688 30.6885 48.4688 37.2003C48.4688 43.7121 53.7476 48.9909 60.2594 48.9909Z" fill="#5EB696"/>
</svg>
