<svg width="98" height="98" viewBox="0 0 98 98" fill="none" xmlns="http://www.w3.org/2000/svg">
<circle cx="49" cy="49" r="49" fill="#E3E9FF"/>
<path d="M75.0808 35.5939L50.2703 21.8439C49.8626 21.6193 49.4048 21.5015 48.9393 21.5015C48.4739 21.5015 48.016 21.6193 47.6083 21.8439L22.9188 35.4839C22.4899 35.7214 22.1323 36.0692 21.883 36.4914C21.6337 36.9135 21.5018 37.3947 21.501 37.8849C21.5001 38.3752 21.6304 38.8568 21.8782 39.2798C22.1261 39.7028 22.4825 40.0519 22.9106 40.2909L47.7211 54.1509C48.1295 54.3804 48.5901 54.5011 49.0586 54.5016C49.5271 54.5021 49.9879 54.3823 50.3968 54.1536L75.0863 40.4036C75.5152 40.1651 75.8725 39.8161 76.121 39.393C76.3695 38.9698 76.5003 38.4879 76.4997 37.9971C76.4992 37.5064 76.3673 37.0247 76.1178 36.6021C75.8683 36.1795 75.5103 35.8314 75.0808 35.5939Z" fill="#4361EE"/>
<path d="M48.9996 59.6042L25.5833 46.5967L22.9131 51.4037L47.6631 65.1537C48.0715 65.3805 48.531 65.4995 48.9982 65.4995C49.4654 65.4995 49.9249 65.3805 50.3333 65.1537L75.0833 51.4037L72.4131 46.5967L48.9996 59.6042Z" fill="#4361EE"/>
<path d="M48.9996 70.6042L25.5833 57.5967L22.9131 62.4037L47.6631 76.1537C48.0715 76.3805 48.531 76.4995 48.9982 76.4995C49.4654 76.4995 49.9249 76.3805 50.3333 76.1537L75.0833 62.4037L72.4131 57.5967L48.9996 70.6042Z" fill="#4361EE"/>
</svg>
