<svg width="96" height="96" viewBox="0 0 96 96" fill="none" xmlns="http://www.w3.org/2000/svg">
<circle cx="48" cy="48" r="48" fill="#FFEDDE"/>
<g clip-path="url(#clip0_3088_2890)">
<path d="M47.7471 19.7432C32.2825 19.7432 19.7471 32.2786 19.7471 47.7432C19.7471 63.2078 32.2825 75.7432 47.7471 75.7432C63.2117 75.7432 75.7471 63.2078 75.7471 47.7432C75.7471 32.2786 63.2117 19.7432 47.7471 19.7432ZM36.6642 35.1351L50.7988 44.6928C51.7318 45.3648 52.3628 46.3771 52.5552 47.5107C52.7477 48.6443 52.4861 49.8081 51.8271 50.7503C51.1681 51.6926 50.1646 52.3375 49.0338 52.5456C47.903 52.7537 46.7357 52.5083 45.7844 51.8624C45.3665 51.5677 45.0022 51.2034 44.7075 50.7855L35.1498 36.6509C35.0026 36.4401 34.9344 36.1843 34.957 35.9282C34.9796 35.6722 35.0915 35.4323 35.2733 35.2505C35.455 35.0688 35.695 34.9568 35.951 34.9342C36.207 34.9116 36.4629 34.9799 36.6736 35.127L36.6642 35.1351ZM47.7471 71.4355C34.6894 71.4355 24.0548 60.8076 24.0548 47.7432C24.0437 44.5567 24.6808 41.4012 25.9275 38.4687C27.1741 35.5361 29.0042 32.8878 31.3065 30.6847C31.4855 30.5062 31.6983 30.3651 31.9325 30.2697C32.1666 30.1743 32.4174 30.1265 32.6702 30.129C32.923 30.1315 33.1728 30.1843 33.4049 30.2843C33.6371 30.3843 33.8471 30.5296 34.0226 30.7116C34.1981 30.8936 34.3355 31.1087 34.427 31.3444C34.5185 31.5801 34.5622 31.8316 34.5555 32.0843C34.5487 32.3371 34.4918 32.5859 34.3879 32.8164C34.284 33.0469 34.1352 33.2544 33.9503 33.4268C32.0184 35.2759 30.4827 37.4986 29.4364 39.9597C28.3902 42.4208 27.8554 45.0689 27.8644 47.7432C27.8644 58.7062 36.784 67.6259 47.7471 67.6259C58.7101 67.6259 67.6298 58.7062 67.6298 47.7432C67.6298 37.4222 59.7251 28.9132 49.6519 27.9547V35.3585C49.6519 35.8637 49.4512 36.3482 49.094 36.7055C48.7368 37.0627 48.2523 37.2634 47.7471 37.2634C47.2419 37.2634 46.7574 37.0627 46.4002 36.7055C46.0429 36.3482 45.8423 35.8637 45.8423 35.3585V25.9557C45.8423 25.4505 46.0429 24.966 46.4002 24.6088C46.7574 24.2515 47.2419 24.0509 47.7471 24.0509C60.8115 24.0509 71.4394 34.6855 71.4394 47.7432C71.4394 60.8009 60.8115 71.4355 47.7471 71.4355Z" fill="#C97A3D"/>
</g>
<defs>
<clipPath id="clip0_3088_2890">
<rect width="56" height="56" fill="white" transform="translate(20 20)"/>
</clipPath>
</defs>
</svg>
