<svg width="153" height="149" viewBox="0 0 153 149" fill="none" xmlns="http://www.w3.org/2000/svg">
<path fill-rule="evenodd" clip-rule="evenodd" d="M102.191 66.9083L91.3913 53.0748L72.4627 71.5087C71.8198 72.1347 72.263 73.2251 73.1604 73.2251H96.132C96.4178 73.2251 96.6899 73.1028 96.8797 72.8891L102.191 66.9083Z" fill="#4361EE"/>
<path fill-rule="evenodd" clip-rule="evenodd" d="M150.691 101C151.528 101 151.995 100.034 151.475 99.3782L114.972 53.4044C114.782 53.1649 114.492 53.0256 114.187 53.0262L91.3913 53.0748L102.191 66.9083L129.112 100.624C129.302 100.862 129.589 101 129.893 101H150.691Z" fill="#4361EE"/>
<path fill-rule="evenodd" clip-rule="evenodd" d="M102.191 34.0917L91.3913 47.9252L72.4627 29.4913C71.8198 28.8653 72.263 27.7749 73.1604 27.7749H96.132C96.4178 27.7749 96.6899 27.8972 96.8797 28.1109L102.191 34.0917Z" fill="#4361EE"/>
<path fill-rule="evenodd" clip-rule="evenodd" d="M150.691 0C151.528 0 151.995 0.966475 151.475 1.62182L114.972 47.5956C114.782 47.8351 114.492 47.9744 114.187 47.9738L91.3913 47.9252L102.191 34.0917L129.112 0.376032C129.302 0.138386 129.589 0 129.893 0H150.691Z" fill="#4361EE"/>
<path d="M50.5 0C67.4623 6.99018e-05 82.4687 8.36499 91.6261 21.1928C92.0889 21.8411 91.6163 22.7246 90.8198 22.7246H68.2863C68.0974 22.7246 67.9125 22.6708 67.7519 22.5713C62.7389 19.4679 56.8291 17.6749 50.5 17.6748C32.3713 17.6748 17.6748 32.3713 17.6748 50.5C17.6749 68.6286 32.3714 83.3242 50.5 83.3242C56.8295 83.3241 62.7397 81.5313 67.7528 78.4277C67.9135 78.3283 68.0983 78.2744 68.2873 78.2744H90.8208C91.6174 78.2744 92.0899 79.1579 91.6272 79.8062C82.4698 92.6347 67.4628 101 50.5 101C22.6098 101 0.00011495 78.3902 0 50.5C0 22.6097 22.6097 0 50.5 0Z" fill="#14213D"/>
<path d="M24.192 141.432C22.272 141.432 20.496 141.084 18.864 140.388C17.256 139.692 15.84 138.72 14.616 137.472C13.416 136.224 12.48 134.76 11.808 133.08C11.136 131.4 10.8 129.564 10.8 127.572C10.8 125.58 11.124 123.744 11.772 122.064C12.444 120.36 13.38 118.896 14.58 117.672C15.804 116.424 17.232 115.464 18.864 114.792C20.496 114.096 22.272 113.748 24.192 113.748C26.112 113.748 27.828 114.072 29.34 114.72C30.876 115.368 32.172 116.232 33.228 117.312C34.284 118.368 35.04 119.532 35.496 120.804L31.104 122.856C30.6 121.512 29.748 120.408 28.548 119.544C27.348 118.656 25.896 118.212 24.192 118.212C22.512 118.212 21.024 118.608 19.728 119.4C18.456 120.192 17.46 121.284 16.74 122.676C16.044 124.068 15.696 125.7 15.696 127.572C15.696 129.444 16.044 131.088 16.74 132.504C17.46 133.896 18.456 134.988 19.728 135.78C21.024 136.572 22.512 136.968 24.192 136.968C25.896 136.968 27.348 136.536 28.548 135.672C29.748 134.784 30.6 133.668 31.104 132.324L35.496 134.376C35.04 135.648 34.284 136.824 33.228 137.904C32.172 138.96 30.876 139.812 29.34 140.46C27.828 141.108 26.112 141.432 24.192 141.432ZM44.6633 141.432C43.2953 141.432 42.1073 141.204 41.0993 140.748C40.0913 140.292 39.3113 139.644 38.7593 138.804C38.2073 137.94 37.9313 136.944 37.9313 135.816C37.9313 134.736 38.1713 133.776 38.6513 132.936C39.1313 132.072 39.8753 131.352 40.8833 130.776C41.8913 130.2 43.1633 129.792 44.6993 129.552L51.1073 128.508V132.108L45.5993 133.044C44.6633 133.212 43.9673 133.512 43.5113 133.944C43.0553 134.376 42.8273 134.94 42.8273 135.636C42.8273 136.308 43.0793 136.848 43.5833 137.256C44.1113 137.64 44.7593 137.832 45.5273 137.832C46.5113 137.832 47.3753 137.628 48.1193 137.22C48.8873 136.788 49.4753 136.2 49.8833 135.456C50.3153 134.712 50.5313 133.896 50.5313 133.008V127.968C50.5313 127.128 50.1953 126.432 49.5233 125.88C48.8753 125.304 48.0113 125.016 46.9313 125.016C45.9233 125.016 45.0233 125.292 44.2313 125.844C43.4633 126.372 42.8993 127.08 42.5393 127.968L38.6873 126.096C39.0713 125.064 39.6713 124.176 40.4873 123.432C41.3273 122.664 42.3113 122.064 43.4393 121.632C44.5673 121.2 45.7913 120.984 47.1113 120.984C48.7193 120.984 50.1353 121.284 51.3593 121.884C52.5833 122.46 53.5313 123.276 54.2033 124.332C54.8993 125.364 55.2473 126.576 55.2473 127.968V141H50.7833V137.652L51.7913 137.58C51.2873 138.42 50.6873 139.128 49.9913 139.704C49.2953 140.256 48.5033 140.688 47.6153 141C46.7273 141.288 45.7433 141.432 44.6633 141.432ZM68.1826 141.216C65.9746 141.216 64.2586 140.616 63.0346 139.416C61.8346 138.192 61.2346 136.476 61.2346 134.268V125.628H57.8506V121.416H58.2106C59.1706 121.416 59.9146 121.164 60.4426 120.66C60.9706 120.156 61.2346 119.424 61.2346 118.464V116.952H65.9506V121.416H70.4506V125.628H65.9506V134.016C65.9506 134.664 66.0586 135.216 66.2746 135.672C66.5146 136.128 66.8746 136.476 67.3546 136.716C67.8586 136.956 68.4946 137.076 69.2626 137.076C69.4306 137.076 69.6226 137.064 69.8386 137.04C70.0786 137.016 70.3066 136.992 70.5226 136.968V141C70.1866 141.048 69.8026 141.096 69.3706 141.144C68.9386 141.192 68.5426 141.216 68.1826 141.216ZM79.9954 141.432C78.6274 141.432 77.4394 141.204 76.4314 140.748C75.4234 140.292 74.6434 139.644 74.0914 138.804C73.5394 137.94 73.2634 136.944 73.2634 135.816C73.2634 134.736 73.5034 133.776 73.9834 132.936C74.4634 132.072 75.2074 131.352 76.2154 130.776C77.2234 130.2 78.4954 129.792 80.0314 129.552L86.4394 128.508V132.108L80.9314 133.044C79.9954 133.212 79.2994 133.512 78.8434 133.944C78.3874 134.376 78.1594 134.94 78.1594 135.636C78.1594 136.308 78.4114 136.848 78.9154 137.256C79.4434 137.64 80.0914 137.832 80.8594 137.832C81.8434 137.832 82.7074 137.628 83.4514 137.22C84.2194 136.788 84.8074 136.2 85.2154 135.456C85.6474 134.712 85.8634 133.896 85.8634 133.008V127.968C85.8634 127.128 85.5274 126.432 84.8554 125.88C84.2074 125.304 83.3434 125.016 82.2634 125.016C81.2554 125.016 80.3554 125.292 79.5634 125.844C78.7954 126.372 78.2314 127.08 77.8714 127.968L74.0194 126.096C74.4034 125.064 75.0034 124.176 75.8194 123.432C76.6594 122.664 77.6434 122.064 78.7714 121.632C79.8994 121.2 81.1234 120.984 82.4434 120.984C84.0514 120.984 85.4674 121.284 86.6914 121.884C87.9154 122.46 88.8634 123.276 89.5354 124.332C90.2314 125.364 90.5794 126.576 90.5794 127.968V141H86.1154V137.652L87.1234 137.58C86.6194 138.42 86.0194 139.128 85.3234 139.704C84.6274 140.256 83.8354 140.688 82.9474 141C82.0594 141.288 81.0754 141.432 79.9954 141.432ZM94.9382 141V113.748H99.6542V141H94.9382ZM106.385 148.92C105.857 148.92 105.341 148.872 104.837 148.776C104.333 148.704 103.877 148.56 103.469 148.344V144.42C103.781 144.492 104.153 144.564 104.585 144.636C105.041 144.708 105.461 144.744 105.845 144.744C106.925 144.744 107.705 144.492 108.185 143.988C108.689 143.508 109.133 142.86 109.517 142.044L110.812 139.02L110.741 142.98L102.209 121.416H107.285L113.261 137.328H111.461L117.401 121.416H122.513L113.981 142.98C113.477 144.228 112.865 145.296 112.145 146.184C111.424 147.072 110.585 147.744 109.625 148.2C108.689 148.68 107.609 148.92 106.385 148.92ZM123.338 141L130.178 131.172L123.302 121.416H128.846L134.21 129.336H131.726L137.09 121.416H142.598L135.758 131.172L142.562 141H137.054L131.762 133.116H134.174L128.882 141H123.338Z" fill="#14213D"/>
</svg>
