<svg width="210" height="45" viewBox="0 0 210 45" fill="none" xmlns="http://www.w3.org/2000/svg">
<path fill-rule="evenodd" clip-rule="evenodd" d="M39.1007 28.278L34.9686 22.9851L28.8142 28.9786C28.1714 29.6046 28.6146 30.695 29.5119 30.695H36.5051C36.7909 30.695 37.063 30.5727 37.2528 30.359L39.1007 28.278Z" fill="#4361EE"/>
<path fill-rule="evenodd" clip-rule="evenodd" d="M56.3796 41.3223C57.2164 41.3223 57.6831 40.3558 57.1628 39.7004L44.177 23.3453C43.9868 23.1058 43.6975 22.9665 43.3917 22.9671L34.9686 22.9851L39.1007 28.278L49.216 40.9462C49.4057 41.1839 49.6933 41.3223 49.9974 41.3223H56.3796Z" fill="#4361EE"/>
<path fill-rule="evenodd" clip-rule="evenodd" d="M39.1007 15.722L34.9686 21.0149L28.8142 15.0214C28.1714 14.3954 28.6146 13.305 29.5119 13.305H36.5051C36.7909 13.305 37.063 13.4273 37.2528 13.641L39.1007 15.722Z" fill="#4361EE"/>
<path fill-rule="evenodd" clip-rule="evenodd" d="M56.3796 2.67773C57.2164 2.67773 57.6831 3.64421 57.1628 4.29956L44.177 20.6547C43.9868 20.8942 43.6975 21.0335 43.3917 21.0329L34.9686 21.0149L39.1007 15.722L49.216 3.05377C49.4057 2.81612 49.6933 2.67773 49.9974 2.67773H56.3796Z" fill="#4361EE"/>
<path d="M19.3223 2.67773C25.4009 2.67773 30.8231 5.48514 34.365 9.87362C34.8653 10.4935 34.3996 11.373 33.6031 11.373H26.3018C26.1129 11.373 25.9285 11.3187 25.7665 11.2216C23.8822 10.0923 21.6789 9.44047 19.3223 9.44043C12.3859 9.44043 6.76271 15.0636 6.7627 22C6.7627 28.9364 12.3858 34.5596 19.3223 34.5596C21.6789 34.5595 23.8822 33.9077 25.7665 32.7784C25.9285 32.6813 26.1129 32.627 26.3018 32.627H33.6031C34.3996 32.627 34.8653 33.5065 34.365 34.1264C30.8231 38.5149 25.4009 41.3223 19.3223 41.3223C8.65087 41.3222 0 32.6714 0 22C1.72661e-05 11.3286 8.65088 2.67775 19.3223 2.67773Z" fill="#14213D"/>
<path d="M85.6422 37.432C83.7222 37.432 81.9462 37.084 80.3142 36.388C78.7062 35.692 77.2902 34.72 76.0662 33.472C74.8662 32.224 73.9302 30.76 73.2582 29.08C72.5862 27.4 72.2502 25.564 72.2502 23.572C72.2502 21.58 72.5742 19.744 73.2222 18.064C73.8942 16.36 74.8302 14.896 76.0302 13.672C77.2542 12.424 78.6822 11.464 80.3142 10.792C81.9462 10.096 83.7222 9.748 85.6422 9.748C87.5622 9.748 89.2782 10.072 90.7902 10.72C92.3262 11.368 93.6222 12.232 94.6782 13.312C95.7342 14.368 96.4902 15.532 96.9462 16.804L92.5542 18.856C92.0502 17.512 91.1982 16.408 89.9982 15.544C88.7982 14.656 87.3462 14.212 85.6422 14.212C83.9622 14.212 82.4742 14.608 81.1782 15.4C79.9062 16.192 78.9102 17.284 78.1902 18.676C77.4942 20.068 77.1462 21.7 77.1462 23.572C77.1462 25.444 77.4942 27.088 78.1902 28.504C78.9102 29.896 79.9062 30.988 81.1782 31.78C82.4742 32.572 83.9622 32.968 85.6422 32.968C87.3462 32.968 88.7982 32.536 89.9982 31.672C91.1982 30.784 92.0502 29.668 92.5542 28.324L96.9462 30.376C96.4902 31.648 95.7342 32.824 94.6782 33.904C93.6222 34.96 92.3262 35.812 90.7902 36.46C89.2782 37.108 87.5622 37.432 85.6422 37.432ZM106.114 37.432C104.746 37.432 103.558 37.204 102.55 36.748C101.542 36.292 100.762 35.644 100.21 34.804C99.6575 33.94 99.3815 32.944 99.3815 31.816C99.3815 30.736 99.6215 29.776 100.102 28.936C100.582 28.072 101.326 27.352 102.334 26.776C103.342 26.2 104.614 25.792 106.15 25.552L112.558 24.508V28.108L107.05 29.044C106.114 29.212 105.418 29.512 104.962 29.944C104.506 30.376 104.278 30.94 104.278 31.636C104.278 32.308 104.53 32.848 105.034 33.256C105.562 33.64 106.21 33.832 106.978 33.832C107.962 33.832 108.826 33.628 109.57 33.22C110.338 32.788 110.926 32.2 111.334 31.456C111.766 30.712 111.982 29.896 111.982 29.008V23.968C111.982 23.128 111.646 22.432 110.974 21.88C110.326 21.304 109.462 21.016 108.382 21.016C107.374 21.016 106.474 21.292 105.682 21.844C104.914 22.372 104.35 23.08 103.99 23.968L100.138 22.096C100.522 21.064 101.122 20.176 101.938 19.432C102.778 18.664 103.762 18.064 104.89 17.632C106.018 17.2 107.242 16.984 108.562 16.984C110.17 16.984 111.586 17.284 112.81 17.884C114.034 18.46 114.982 19.276 115.654 20.332C116.35 21.364 116.698 22.576 116.698 23.968V37H112.234V33.652L113.242 33.58C112.738 34.42 112.138 35.128 111.442 35.704C110.746 36.256 109.954 36.688 109.066 37C108.178 37.288 107.194 37.432 106.114 37.432ZM129.633 37.216C127.425 37.216 125.709 36.616 124.485 35.416C123.285 34.192 122.685 32.476 122.685 30.268V21.628H119.301V17.416H119.661C120.621 17.416 121.365 17.164 121.893 16.66C122.421 16.156 122.685 15.424 122.685 14.464V12.952H127.401V17.416H131.901V21.628H127.401V30.016C127.401 30.664 127.509 31.216 127.725 31.672C127.965 32.128 128.325 32.476 128.805 32.716C129.309 32.956 129.945 33.076 130.713 33.076C130.881 33.076 131.073 33.064 131.289 33.04C131.529 33.016 131.757 32.992 131.973 32.968V37C131.637 37.048 131.253 37.096 130.821 37.144C130.389 37.192 129.993 37.216 129.633 37.216ZM141.446 37.432C140.078 37.432 138.89 37.204 137.882 36.748C136.874 36.292 136.094 35.644 135.542 34.804C134.99 33.94 134.714 32.944 134.714 31.816C134.714 30.736 134.954 29.776 135.434 28.936C135.914 28.072 136.658 27.352 137.666 26.776C138.674 26.2 139.946 25.792 141.482 25.552L147.89 24.508V28.108L142.382 29.044C141.446 29.212 140.75 29.512 140.294 29.944C139.838 30.376 139.61 30.94 139.61 31.636C139.61 32.308 139.862 32.848 140.366 33.256C140.894 33.64 141.542 33.832 142.31 33.832C143.294 33.832 144.158 33.628 144.902 33.22C145.67 32.788 146.258 32.2 146.666 31.456C147.098 30.712 147.314 29.896 147.314 29.008V23.968C147.314 23.128 146.978 22.432 146.306 21.88C145.658 21.304 144.794 21.016 143.714 21.016C142.706 21.016 141.806 21.292 141.014 21.844C140.246 22.372 139.682 23.08 139.322 23.968L135.47 22.096C135.854 21.064 136.454 20.176 137.27 19.432C138.11 18.664 139.094 18.064 140.222 17.632C141.35 17.2 142.574 16.984 143.894 16.984C145.502 16.984 146.918 17.284 148.142 17.884C149.366 18.46 150.314 19.276 150.986 20.332C151.682 21.364 152.03 22.576 152.03 23.968V37H147.566V33.652L148.574 33.58C148.07 34.42 147.47 35.128 146.774 35.704C146.078 36.256 145.286 36.688 144.398 37C143.51 37.288 142.526 37.432 141.446 37.432ZM156.388 37V9.748H161.104V37H156.388ZM167.835 44.92C167.307 44.92 166.791 44.872 166.287 44.776C165.783 44.704 165.327 44.56 164.919 44.344V40.42C165.231 40.492 165.603 40.564 166.035 40.636C166.491 40.708 166.911 40.744 167.295 40.744C168.375 40.744 169.155 40.492 169.635 39.988C170.139 39.508 170.583 38.86 170.967 38.044L172.263 35.02L172.191 38.98L163.659 17.416H168.735L174.711 33.328H172.911L178.851 17.416H183.963L175.431 38.98C174.927 40.228 174.315 41.296 173.595 42.184C172.875 43.072 172.035 43.744 171.075 44.2C170.139 44.68 169.059 44.92 167.835 44.92ZM184.788 37L191.628 27.172L184.752 17.416H190.296L195.66 25.336H193.176L198.54 17.416H204.048L197.208 27.172L204.012 37H198.504L193.212 29.116H195.624L190.332 37H184.788Z" fill="#14213D"/>
</svg>
