<svg width="601" height="397" viewBox="0 0 601 397" fill="none" xmlns="http://www.w3.org/2000/svg">
<path fill-rule="evenodd" clip-rule="evenodd" d="M401.648 262.973L359.201 208.603L279.64 286.085C278.997 286.711 279.44 287.801 280.338 287.801H379.151C379.437 287.801 379.709 287.679 379.899 287.465L401.648 262.973Z" fill="#4361EE"/>
<path fill-rule="evenodd" clip-rule="evenodd" d="M598.342 396.967C599.179 396.967 599.646 396 599.125 395.345L451 208.787C450.81 208.547 450.52 208.408 450.215 208.409L359.201 208.603L401.648 262.973L508.338 396.591C508.528 396.828 508.815 396.967 509.119 396.967H598.342Z" fill="#4361EE"/>
<path fill-rule="evenodd" clip-rule="evenodd" d="M401.648 133.993L359.201 188.364L279.64 110.882C278.997 110.256 279.44 109.166 280.338 109.166H379.151C379.437 109.166 379.709 109.288 379.899 109.502L401.648 133.993Z" fill="#4361EE"/>
<path fill-rule="evenodd" clip-rule="evenodd" d="M598.342 0C599.179 0 599.646 0.966475 599.125 1.62182L451 188.18C450.81 188.42 450.52 188.559 450.215 188.558L359.201 188.364L401.648 133.993L508.338 0.376035C508.528 0.138388 508.815 0 509.119 0H598.342Z" fill="#4361EE"/>
<path d="M198.483 0C267.108 2.58128e-06 327.596 34.8272 363.243 87.7698C363.687 88.4306 363.212 89.3164 362.416 89.3164H267.555C267.366 89.3164 267.181 89.2628 267.021 89.1623C247.163 76.6861 223.666 69.4688 198.483 69.4688C127.231 69.4688 69.4688 127.231 69.4688 198.483C69.469 269.736 127.231 327.497 198.483 327.497C223.667 327.497 247.164 320.279 267.022 307.803C267.182 307.702 267.367 307.648 267.556 307.648H362.417C363.213 307.648 363.688 308.534 363.244 309.195C327.598 362.139 267.108 396.967 198.483 396.967C88.8641 396.967 4.12437e-06 308.103 0 198.483C0 88.864 88.864 0 198.483 0Z" fill="#14213D"/>
</svg>
