<svg width="72" height="72" viewBox="0 0 72 72" fill="none" xmlns="http://www.w3.org/2000/svg">
<path d="M67.0728 9.94497C66.7604 9.5106 66.3034 9.2018 65.7838 9.07397C65.2643 8.94614 64.7162 9.00765 64.2379 9.24747L61.2903 10.71L62.7528 7.76247C62.9974 7.28459 63.0631 6.73501 62.938 6.21296C62.8129 5.69091 62.5053 5.23079 62.0706 4.91568C61.636 4.60058 61.103 4.45126 60.568 4.49468C60.0329 4.5381 59.531 4.77141 59.1529 5.15246L50.1529 14.1525C49.9443 14.3627 49.7793 14.612 49.6674 14.8862C49.5554 15.1603 49.4986 15.4538 49.5004 15.75V19.3275L34.4029 34.4025C34.192 34.6116 34.0246 34.8605 33.9103 35.1347C33.7961 35.4088 33.7373 35.7029 33.7373 36C33.7373 36.297 33.7961 36.5911 33.9103 36.8653C34.0246 37.1394 34.192 37.3883 34.4029 37.5975C34.612 37.8084 34.8609 37.9757 35.1351 38.09C35.4092 38.2042 35.7033 38.263 36.0004 38.263C36.2974 38.263 36.5915 38.2042 36.8656 38.09C37.1398 37.9757 37.3887 37.8084 37.5978 37.5975L52.6729 22.5H56.2504C56.5465 22.5017 56.84 22.4449 57.1141 22.3329C57.3883 22.221 57.6376 22.056 57.8478 21.8475L66.8478 12.8475C67.2232 12.4688 67.4518 11.9691 67.493 11.4375C67.5342 10.9059 67.3853 10.377 67.0728 9.94497Z" fill="#4361EE"/>
<path d="M29.4525 34.4025C29.531 34.0546 29.6441 33.7154 29.79 33.39C29.778 33.3535 29.778 33.314 29.79 33.2775C30.1165 32.5102 30.5904 31.8146 31.185 31.23L37.5075 24.9075C37.0089 24.8225 36.5054 24.7699 36 24.75C33.775 24.75 31.5999 25.4098 29.7498 26.646C27.8998 27.8821 26.4578 29.6391 25.6064 31.6948C24.7549 33.7505 24.5321 36.0125 24.9662 38.1948C25.4003 40.3771 26.4717 42.3816 28.0451 43.955C29.6184 45.5283 31.623 46.5998 33.8052 47.0338C35.9875 47.4679 38.2495 47.2451 40.3052 46.3936C42.3609 45.5422 44.1179 44.1002 45.354 42.2502C46.5902 40.4001 47.25 38.225 47.25 36C47.2321 35.4796 47.1795 34.9609 47.0925 34.4475L40.77 40.77C40.1895 41.3591 39.5023 41.8325 38.745 42.165H38.61C38.2846 42.3109 37.9454 42.424 37.5975 42.5025H37.35C36.4592 42.6843 35.5408 42.6843 34.65 42.5025H34.4025C34.0546 42.424 33.7154 42.3109 33.39 42.165H33.2775C31.7417 41.4857 30.5143 40.2583 29.835 38.7225C29.823 38.686 29.823 38.6465 29.835 38.61C29.6891 38.2846 29.576 37.9454 29.4975 37.5975V37.35C29.3157 36.4592 29.3157 35.5408 29.4975 34.65L29.4525 34.4025Z" fill="#4361EE"/>
<path d="M44.7075 17.7525C41.9955 16.4303 39.0172 15.7454 36 15.75C31.9949 15.75 28.0798 16.9377 24.7497 19.1628C21.4196 21.3879 18.8241 24.5505 17.2914 28.2507C15.7588 31.9509 15.3578 36.0225 16.1391 39.9506C16.9205 43.8787 18.8491 47.4869 21.6811 50.3189C24.5131 53.1509 28.1213 55.0796 32.0494 55.8609C35.9775 56.6423 40.0491 56.2413 43.7493 54.7086C47.4496 53.1759 50.6122 50.5804 52.8373 47.2503C55.0624 43.9202 56.25 40.0051 56.25 36C56.2547 32.9829 55.5697 30.0045 54.2475 27.2925L50.8275 30.735C52.0253 34.1033 52.0416 37.7788 50.8737 41.1575C49.7058 44.5363 47.4232 47.4172 44.4011 49.3268C41.379 51.2364 37.7972 52.0611 34.2443 51.6653C30.6914 51.2696 27.3788 49.6769 24.851 47.1491C22.3231 44.6213 20.7305 41.3087 20.3347 37.7558C19.9389 34.2029 20.7636 30.621 22.6732 27.5989C24.5829 24.5768 27.4638 22.2942 30.8425 21.1263C34.2212 19.9585 37.8968 19.9747 41.265 21.1725L44.7075 17.7525Z" fill="#4361EE"/>
<path d="M61.02 25.0199C60.3755 25.653 59.6103 26.1504 58.77 26.4824C60.0626 29.4897 60.736 32.7266 60.75 35.9999C60.75 40.895 59.2984 45.6801 56.5789 49.7502C53.8593 53.8203 49.9939 56.9926 45.4714 58.8659C40.949 60.7392 35.9726 61.2293 31.1715 60.2743C26.3705 59.3193 21.9605 56.9621 18.4991 53.5008C15.0378 50.0394 12.6806 45.6294 11.7256 40.8284C10.7706 36.0273 11.2607 31.0509 13.134 26.5285C15.0073 22.006 18.1795 18.1406 22.2496 15.421C26.3198 12.7014 31.1049 11.2499 36 11.2499C39.2687 11.2426 42.5054 11.893 45.5175 13.1624C45.8495 12.322 46.3468 11.5569 46.98 10.9124L48.3975 9.47237C44.5174 7.65848 40.2831 6.72861 36 6.74987C30.2149 6.74987 24.5597 8.46535 19.7496 11.6794C14.9394 14.8934 11.1904 19.4616 8.97654 24.8064C6.76267 30.1511 6.18343 36.0323 7.31204 41.7063C8.44066 47.3802 11.2265 52.5921 15.3171 56.6827C19.4078 60.7734 24.6197 63.5592 30.2936 64.6878C35.9676 65.8165 41.8488 65.2372 47.1935 63.0233C52.5382 60.8095 57.1065 57.0604 60.3205 52.2503C63.5345 47.4402 65.25 41.785 65.25 35.9999C65.2502 31.7117 64.2972 27.4771 62.46 23.6024L61.02 25.0199Z" fill="#4361EE"/>
</svg>
