<svg width="299" height="167" viewBox="0 0 299 167" fill="none" xmlns="http://www.w3.org/2000/svg">
<g filter="url(#filter0_d_3264_1531)">
<circle cx="49.8129" cy="79.2631" r="41.8129" fill="white"/>
<circle cx="49.8129" cy="79.2631" r="41.3129" stroke="#E0E6FF"/>
</g>
<path d="M50.5729 94.0054L64.1321 86.177C64.2094 86.1323 64.2571 86.0498 64.2571 85.9605V69.3797L50.1787 61.843C50.1025 61.8022 50.0106 61.8036 49.9358 61.8469L36.8887 69.3797V85.9605C36.8887 86.0498 36.9363 86.1323 37.0137 86.177L50.5729 94.0054ZM36.8887 69.3797L50.5729 76.982M64.2571 69.3797L50.5729 76.982M50.5729 76.982V94.0054" stroke="#4361EE" stroke-width="1.5" stroke-linecap="round"/>
<g filter="url(#filter1_d_3264_1531)">
<circle cx="214.912" cy="79.5" r="75.5" fill="white"/>
<circle cx="214.912" cy="79.5" r="75" stroke="#E0E6FF"/>
</g>
<path d="M202.173 48.4949L209.068 44.5141C209.146 44.4694 209.193 44.3869 209.193 44.2976V35.8619L202.031 32.0275C201.955 31.9867 201.863 31.9882 201.788 32.0314L195.153 35.8619V44.2976C195.153 44.3869 195.201 44.4694 195.278 44.5141L202.173 48.4949ZM195.153 35.8619L202.173 39.7619M209.193 35.8619L202.173 39.7619M202.173 39.7619V48.4949" stroke="#4361EE" stroke-linecap="round"/>
<path d="M202.173 99.9764L209.068 95.9955C209.146 95.9509 209.193 95.8683 209.193 95.779V87.3434L202.031 83.509C201.955 83.4682 201.863 83.4697 201.788 83.5129L195.153 87.3434V95.779C195.153 95.8683 195.201 95.9509 195.278 95.9955L202.173 99.9764ZM195.153 87.3434L202.173 91.2434M209.193 87.3434L202.173 91.2434M202.173 91.2434V99.9764" stroke="#4361EE" stroke-linecap="round"/>
<path d="M178.59 48.4949L185.485 44.5141C185.562 44.4694 185.61 44.3869 185.61 44.2976V35.8619L178.447 32.0275C178.371 31.9867 178.279 31.9882 178.204 32.0314L171.57 35.8619V44.2976C171.57 44.3869 171.617 44.4694 171.695 44.5141L178.59 48.4949ZM171.57 35.8619L178.59 39.7619M185.61 35.8619L178.59 39.7619M178.59 39.7619V48.4949" stroke="#4361EE" stroke-linecap="round"/>
<path d="M178.59 99.9764L185.485 95.9955C185.562 95.9509 185.61 95.8683 185.61 95.779V87.3434L178.447 83.509C178.371 83.4682 178.279 83.4697 178.204 83.5129L171.57 87.3434V95.779C171.57 95.8683 171.617 95.9509 171.695 95.9955L178.59 99.9764ZM171.57 87.3434L178.59 91.2434M185.61 87.3434L178.59 91.2434M178.59 91.2434V99.9764" stroke="#4361EE" stroke-linecap="round"/>
<path d="M178.59 74.2351L185.485 70.2543C185.562 70.2097 185.61 70.1271 185.61 70.0378V61.6021L178.447 57.7678C178.371 57.727 178.279 57.7284 178.204 57.7717L171.57 61.6021V70.0378C171.57 70.1271 171.617 70.2097 171.695 70.2543L178.59 74.2351ZM171.57 61.6021L178.59 65.5021M185.61 61.6021L178.59 65.5021M178.59 65.5021V74.2351" stroke="#4361EE" stroke-linecap="round"/>
<path d="M178.59 125.717L185.485 121.736C185.562 121.691 185.61 121.609 185.61 121.519V113.084L178.447 109.249C178.371 109.208 178.279 109.21 178.204 109.253L171.57 113.084V121.519C171.57 121.609 171.617 121.691 171.695 121.736L178.59 125.717ZM171.57 113.084L178.59 116.984M185.61 113.084L178.59 116.984M178.59 116.984V125.717" stroke="#4361EE" stroke-linecap="round"/>
<path d="M202.173 74.2351L209.068 70.2543C209.146 70.2097 209.193 70.1271 209.193 70.0378V61.6021L202.031 57.7678C201.955 57.727 201.863 57.7284 201.788 57.7717L195.153 61.6021V70.0378C195.153 70.1271 195.201 70.2097 195.278 70.2543L202.173 74.2351ZM195.153 61.6021L202.173 65.5021M209.193 61.6021L202.173 65.5021M202.173 65.5021V74.2351" stroke="#4361EE" stroke-linecap="round"/>
<path d="M202.173 125.717L209.068 121.736C209.146 121.691 209.193 121.609 209.193 121.519V113.084L202.031 109.249C201.955 109.208 201.863 109.21 201.788 109.253L195.153 113.084V121.519C195.153 121.609 195.201 121.691 195.278 121.736L202.173 125.717ZM195.153 113.084L202.173 116.984M209.193 113.084L202.173 116.984M202.173 116.984V125.717" stroke="#4361EE" stroke-linecap="round"/>
<path d="M225.758 74.2351L232.653 70.2543C232.73 70.2097 232.778 70.1271 232.778 70.0378V61.6021L225.615 57.7678C225.539 57.727 225.447 57.7284 225.372 57.7717L218.738 61.6021V70.0378C218.738 70.1271 218.785 70.2097 218.863 70.2543L225.758 74.2351ZM218.738 61.6021L225.758 65.5021M232.778 61.6021L225.758 65.5021M225.758 65.5021V74.2351" stroke="#4361EE" stroke-linecap="round"/>
<path d="M225.758 125.717L232.653 121.736C232.73 121.691 232.778 121.609 232.778 121.519V113.084L225.615 109.249C225.539 109.208 225.447 109.21 225.372 109.253L218.738 113.084V121.519C218.738 121.609 218.785 121.691 218.863 121.736L225.758 125.717ZM218.738 113.084L225.758 116.984M232.778 113.084L225.758 116.984M225.758 116.984V125.717" stroke="#4361EE" stroke-linecap="round"/>
<path d="M249.342 74.2351L256.237 70.2543C256.314 70.2097 256.362 70.1271 256.362 70.0378V61.6021L249.199 57.7678C249.123 57.727 249.031 57.7284 248.956 57.7717L242.322 61.6021V70.0378C242.322 70.1271 242.369 70.2097 242.447 70.2543L249.342 74.2351ZM242.322 61.6021L249.342 65.5021M256.362 61.6021L249.342 65.5021M249.342 65.5021V74.2351" stroke="#4361EE" stroke-linecap="round"/>
<path d="M249.342 125.717L256.237 121.736C256.314 121.691 256.362 121.609 256.362 121.519V113.084L249.199 109.249C249.123 109.208 249.031 109.21 248.956 109.253L242.322 113.084V121.519C242.322 121.609 242.369 121.691 242.447 121.736L249.342 125.717ZM242.322 113.084L249.342 116.984M256.362 113.084L249.342 116.984M249.342 116.984V125.717" stroke="#4361EE" stroke-linecap="round"/>
<path d="M225.758 48.4949L232.653 44.5141C232.73 44.4694 232.778 44.3869 232.778 44.2976V35.8619L225.615 32.0275C225.539 31.9867 225.447 31.9882 225.372 32.0314L218.738 35.8619V44.2976C218.738 44.3869 218.785 44.4694 218.863 44.5141L225.758 48.4949ZM218.738 35.8619L225.758 39.7619M232.778 35.8619L225.758 39.7619M225.758 39.7619V48.4949" stroke="#4361EE" stroke-linecap="round"/>
<path d="M225.758 99.9764L232.653 95.9955C232.73 95.9509 232.778 95.8683 232.778 95.779V87.3434L225.615 83.509C225.539 83.4682 225.447 83.4697 225.372 83.5129L218.738 87.3434V95.779C218.738 95.8683 218.785 95.9509 218.863 95.9955L225.758 99.9764ZM218.738 87.3434L225.758 91.2434M232.778 87.3434L225.758 91.2434M225.758 91.2434V99.9764" stroke="#4361EE" stroke-linecap="round"/>
<path d="M249.342 48.4949L256.237 44.5141C256.314 44.4694 256.362 44.3869 256.362 44.2976V35.8619L249.199 32.0275C249.123 31.9867 249.031 31.9882 248.956 32.0314L242.322 35.8619V44.2976C242.322 44.3869 242.369 44.4694 242.447 44.5141L249.342 48.4949ZM242.322 35.8619L249.342 39.7619M256.362 35.8619L249.342 39.7619M249.342 39.7619V48.4949" stroke="#4361EE" stroke-linecap="round"/>
<path d="M249.342 99.9764L256.237 95.9955C256.314 95.9509 256.362 95.8683 256.362 95.779V87.3434L249.199 83.509C249.123 83.4682 249.031 83.4697 248.956 83.5129L242.322 87.3434V95.779C242.322 95.8683 242.369 95.9509 242.447 95.9955L249.342 99.9764ZM242.322 87.3434L249.342 91.2434M256.362 87.3434L249.342 91.2434M249.342 91.2434V99.9764" stroke="#4361EE" stroke-linecap="round"/>
<line x1="92.1255" y1="78.7627" x2="138.912" y2="78.7627" stroke="#8AA3DB" stroke-linecap="round" stroke-dasharray="4 4"/>
<line x1="123.394" y1="70.4132" x2="106.669" y2="87.1383" stroke="#C97A3D" stroke-width="2"/>
<line x1="123.787" y1="87.1387" x2="107.062" y2="70.4136" stroke="#C97A3D" stroke-width="2"/>
<defs>
<filter id="filter0_d_3264_1531" x="0" y="33.4502" width="99.626" height="99.626" filterUnits="userSpaceOnUse" color-interpolation-filters="sRGB">
<feFlood flood-opacity="0" result="BackgroundImageFix"/>
<feColorMatrix in="SourceAlpha" type="matrix" values="0 0 0 0 0 0 0 0 0 0 0 0 0 0 0 0 0 0 127 0" result="hardAlpha"/>
<feOffset dy="4"/>
<feGaussianBlur stdDeviation="4"/>
<feComposite in2="hardAlpha" operator="out"/>
<feColorMatrix type="matrix" values="0 0 0 0 0.262745 0 0 0 0 0.380392 0 0 0 0 0.933333 0 0 0 0.25 0"/>
<feBlend mode="normal" in2="BackgroundImageFix" result="effect1_dropShadow_3264_1531"/>
<feBlend mode="normal" in="SourceGraphic" in2="effect1_dropShadow_3264_1531" result="shape"/>
</filter>
<filter id="filter1_d_3264_1531" x="131.412" y="0" width="167" height="167" filterUnits="userSpaceOnUse" color-interpolation-filters="sRGB">
<feFlood flood-opacity="0" result="BackgroundImageFix"/>
<feColorMatrix in="SourceAlpha" type="matrix" values="0 0 0 0 0 0 0 0 0 0 0 0 0 0 0 0 0 0 127 0" result="hardAlpha"/>
<feOffset dy="4"/>
<feGaussianBlur stdDeviation="4"/>
<feComposite in2="hardAlpha" operator="out"/>
<feColorMatrix type="matrix" values="0 0 0 0 0.262745 0 0 0 0 0.380392 0 0 0 0 0.933333 0 0 0 0.25 0"/>
<feBlend mode="normal" in2="BackgroundImageFix" result="effect1_dropShadow_3264_1531"/>
<feBlend mode="normal" in="SourceGraphic" in2="effect1_dropShadow_3264_1531" result="shape"/>
</filter>
</defs>
</svg>
