<svg width="295" height="200" viewBox="0 0 295 200" fill="none" xmlns="http://www.w3.org/2000/svg">
<g filter="url(#filter0_d_3264_1251)">
<rect x="8.125" y="4.125" width="42.5164" height="42.5164" rx="3.875" fill="white" stroke="#E0E6FF" stroke-width="0.25"/>
</g>
<g filter="url(#filter1_d_3264_1251)">
<rect x="8.125" y="74.5635" width="42.5164" height="42.5164" rx="3.875" fill="white" stroke="#E0E6FF" stroke-width="0.25"/>
<path d="M17.4331 85.1299H24.3512C27.1299 85.1299 29.3825 87.3825 29.3825 90.1612V107.142C29.3825 105.058 27.6931 103.368 25.609 103.368H17.4331V85.1299Z" stroke="#C97A3D" stroke-linejoin="round"/>
<path d="M41.3322 85.1299H34.4142C31.6354 85.1299 29.3828 87.3825 29.3828 90.1612V107.142C29.3828 105.058 31.0723 103.368 33.1563 103.368H41.3322V85.1299Z" stroke="#C97A3D" stroke-linejoin="round"/>
</g>
<g filter="url(#filter2_d_3264_1251)">
<rect x="8.125" y="145.002" width="42.5164" height="42.5164" rx="3.875" fill="white" stroke="#E0E6FF" stroke-width="0.25"/>
<path d="M29.2071 163.744C31.9859 163.744 34.2385 161.492 34.2385 158.713C34.2385 155.934 31.9859 153.682 29.2071 153.682C26.4284 153.682 24.1758 155.934 24.1758 158.713C24.1758 161.492 26.4284 163.744 29.2071 163.744Z" stroke="#C97A3D" stroke-linecap="round" stroke-linejoin="round"/>
<path d="M40.5277 178.838C40.5277 172.586 35.4594 167.518 29.2072 167.518C22.9551 167.518 17.8867 172.586 17.8867 178.838" stroke="#C97A3D" stroke-linecap="round" stroke-linejoin="round"/>
</g>
<g filter="url(#filter3_d_3264_1251)">
<rect x="146.612" y="30.1299" width="140.138" height="128.253" rx="3.75" fill="white" stroke="#E0E6FF" stroke-width="0.5"/>
<path d="M146.362 41.7646L287 41.7646" stroke="#E0E6FF" stroke-width="0.5"/>
</g>
<rect x="226.697" y="54.1973" width="33.4733" height="3.34733" rx="1.67366" fill="#4361EE"/>
<rect x="233.518" y="140.805" width="43.578" height="7.92326" rx="2" fill="#4361EE"/>
<rect x="226.697" y="63.125" width="49.0942" height="3.34733" rx="1.67366" fill="#E4ECFD"/>
<rect x="158.248" y="140.805" width="59.4245" height="2.97122" rx="1.48561" fill="#E4ECFD"/>
<rect x="226.697" y="72.0527" width="35.7048" height="3.34733" rx="1.67366" fill="#E4ECFD"/>
<rect x="226.697" y="80.9775" width="49.0942" height="3.34733" rx="1.67366" fill="#E4ECFD"/>
<rect x="158.248" y="146.747" width="49.0942" height="2.97122" rx="1.48561" fill="#E4ECFD"/>
<rect x="226.697" y="89.9033" width="17.8524" height="3.34733" rx="1.67366" fill="#E4ECFD"/>
<rect x="157.519" y="130.323" width="20.084" height="2.23155" rx="1.11578" fill="#CAD8F8"/>
<rect x="205.786" y="129.697" width="20.084" height="2.23155" rx="1.11578" fill="#CAD8F8"/>
<rect x="255.708" y="130.072" width="20.084" height="2.23155" rx="1.11578" fill="#CAD8F8"/>
<rect x="157.643" y="107.883" width="19.834" height="19.834" rx="0.875" fill="#E4ECFD" stroke="#E0E6FF" stroke-width="0.25"/>
<rect x="255.833" y="107.884" width="19.834" height="19.834" rx="0.875" fill="#E6EDFD" stroke="#E0E6FF" stroke-width="0.25"/>
<rect x="258.309" y="109.658" width="15.094" height="15.094" rx="2" fill="#E6EDFD"/>
<path d="M263.498 122.392C263.758 122.392 263.969 122.18 263.969 121.92C263.969 121.659 263.758 121.448 263.498 121.448C263.237 121.448 263.026 121.659 263.026 121.92C263.026 122.18 263.237 122.392 263.498 122.392Z" stroke="#4361EE" stroke-width="0.75" stroke-linecap="round" stroke-linejoin="round"/>
<path d="M270.101 122.392C270.361 122.392 270.572 122.18 270.572 121.92C270.572 121.659 270.361 121.448 270.101 121.448C269.84 121.448 269.629 121.659 269.629 121.92C269.629 122.18 269.84 122.392 270.101 122.392Z" stroke="#4361EE" stroke-width="0.75" stroke-linecap="round" stroke-linejoin="round"/>
<path d="M259.723 112.015H260.77C261.256 112.015 261.671 112.363 261.755 112.841L262.879 119.207C262.963 119.685 263.378 120.033 263.863 120.033H270.571" stroke="#4361EE" stroke-width="0.75" stroke-linecap="round" stroke-linejoin="round"/>
<path d="M263.026 118.147H270.38C270.434 118.147 270.487 118.128 270.529 118.093C270.571 118.059 270.6 118.01 270.611 117.957L271.46 113.712C271.467 113.678 271.466 113.642 271.458 113.608C271.449 113.575 271.433 113.543 271.411 113.516C271.389 113.489 271.361 113.467 271.329 113.452C271.298 113.437 271.263 113.43 271.229 113.43H262.083" stroke="#4361EE" stroke-width="0.75" stroke-linecap="round" stroke-linejoin="round"/>
<rect x="205.911" y="107.254" width="19.834" height="19.834" rx="0.875" fill="#E4ECFD" stroke="#E0E6FF" stroke-width="0.25"/>
<g clip-path="url(#clip0_3264_1251)">
<rect width="12.0504" height="12.0504" rx="1" transform="matrix(-1 0 0 1 221.798 111.091)" fill="#E4ECFD"/>
<path d="M210.363 117.287L215.962 111.688C216.031 111.618 216.114 111.563 216.206 111.525C216.297 111.487 216.395 111.468 216.494 111.468H220.292C220.592 111.468 220.879 111.587 221.091 111.799C221.302 112.011 221.422 112.298 221.422 112.597V116.389C221.422 116.491 221.401 116.593 221.36 116.688C221.319 116.782 221.259 116.867 221.184 116.938L215.228 122.533C215.124 122.631 214.986 122.686 214.842 122.686C214.835 122.686 214.828 122.686 214.821 122.685C214.746 122.683 214.673 122.666 214.605 122.634C214.537 122.603 214.476 122.559 214.426 122.503L210.346 118.069C210.247 117.962 210.194 117.821 210.197 117.675C210.2 117.529 210.259 117.39 210.363 117.287ZM214.851 121.853L220.669 116.389V112.597C220.669 112.498 220.629 112.402 220.558 112.331C220.488 112.261 220.392 112.221 220.292 112.221H216.494L211.023 117.692L214.851 121.853Z" fill="#4361EE"/>
<path d="M218.315 113.351C218.557 113.351 218.794 113.422 218.995 113.557C219.196 113.691 219.353 113.882 219.446 114.106C219.539 114.33 219.563 114.576 219.516 114.813C219.468 115.051 219.352 115.269 219.181 115.44C219.009 115.611 218.791 115.728 218.554 115.775C218.317 115.822 218.07 115.798 217.847 115.705C217.623 115.613 217.432 115.456 217.298 115.254C217.163 115.053 217.091 114.817 217.091 114.574C217.092 114.25 217.221 113.939 217.45 113.709C217.68 113.48 217.991 113.351 218.315 113.351ZM218.315 115.045C218.408 115.045 218.499 115.018 218.577 114.966C218.654 114.914 218.714 114.841 218.75 114.755C218.786 114.669 218.795 114.574 218.777 114.483C218.759 114.391 218.714 114.307 218.648 114.242C218.582 114.176 218.498 114.131 218.407 114.113C218.316 114.095 218.221 114.104 218.135 114.14C218.049 114.175 217.976 114.236 217.924 114.313C217.872 114.39 217.844 114.481 217.844 114.574C217.845 114.699 217.894 114.819 217.983 114.907C218.071 114.995 218.19 115.045 218.315 115.045Z" fill="#4361EE"/>
</g>
<rect x="157.519" y="47.5049" width="60.2519" height="53.5573" rx="2" fill="#E4ECFD"/>
<circle cx="159.465" cy="35.9702" r="1.78273" fill="#E4ECFD"/>
<circle cx="166.595" cy="35.9702" r="1.78273" fill="#E4ECFD"/>
<circle cx="173.726" cy="35.9702" r="1.78273" fill="#E4ECFD"/>
<path fill-rule="evenodd" clip-rule="evenodd" d="M165.139 112.536H169.183C171.097 112.536 172.649 114.088 172.649 116.003V120.047C172.649 121.961 171.097 123.513 169.183 123.513H165.139C163.224 123.513 161.672 121.961 161.672 120.047V116.003C161.672 114.088 163.224 112.536 165.139 112.536ZM169.183 122.647C170.617 122.643 171.78 121.481 171.783 120.047V116.003C171.78 114.568 170.617 113.406 169.183 113.403H165.139C163.704 113.406 162.542 114.568 162.539 116.003V120.047C162.542 121.481 163.704 122.643 165.139 122.647H169.183Z" fill="#4361EE"/>
<path d="M168.998 115.136C168.76 115.139 168.568 115.331 168.565 115.569C168.559 115.934 168.407 116.281 168.143 116.533C167.879 116.785 167.525 116.92 167.161 116.91C166.41 116.932 165.782 116.343 165.757 115.592C165.757 115.353 165.563 115.159 165.324 115.159C165.084 115.159 164.89 115.353 164.89 115.592C164.916 116.822 165.931 117.799 167.161 117.776C168.39 117.799 169.406 116.822 169.431 115.592C169.438 115.473 169.395 115.357 169.313 115.271C169.231 115.185 169.117 115.136 168.998 115.136Z" fill="#4361EE"/>
<path fill-rule="evenodd" clip-rule="evenodd" d="M187.959 91.6148C197.987 91.6148 206.116 83.4854 206.116 73.4573C206.116 63.4292 197.987 55.2998 187.959 55.2998C177.931 55.2998 169.801 63.4292 169.801 73.4573C169.801 83.4854 177.931 91.6148 187.959 91.6148Z" stroke="#4361EE" stroke-width="1.5" stroke-linecap="round" stroke-linejoin="round"/>
<path d="M169.801 73.457H206.116" stroke="#4361EE" stroke-width="1.5" stroke-linecap="round" stroke-linejoin="round"/>
<path fill-rule="evenodd" clip-rule="evenodd" d="M187.959 91.6148C191.97 91.6148 195.222 83.4854 195.222 73.4573C195.222 63.4292 191.97 55.2998 187.959 55.2998C183.948 55.2998 180.696 63.4292 180.696 73.4573C180.696 83.4854 183.948 91.6148 187.959 91.6148Z" stroke="#4361EE" stroke-width="1.5" stroke-linecap="round" stroke-linejoin="round"/>
<path d="M175.119 60.876C178.405 64.1618 182.944 66.1942 187.958 66.1942C192.972 66.1942 197.512 64.1618 200.798 60.876" stroke="#4361EE" stroke-width="1.5" stroke-linecap="round" stroke-linejoin="round"/>
<path d="M200.798 86.038C197.512 82.7521 192.972 80.7197 187.958 80.7197C182.944 80.7197 178.405 82.7521 175.119 86.038" stroke="#4361EE" stroke-width="1.5" stroke-linecap="round" stroke-linejoin="round"/>
<path d="M49.395 97.0801C49.395 98.1846 50.2904 99.0801 51.395 99.0801C52.4996 99.0801 53.395 98.1846 53.395 97.0801C53.395 95.9755 52.4996 95.0801 51.395 95.0801C50.2904 95.0801 49.395 95.9755 49.395 97.0801ZM143.104 97.0801C143.104 98.1846 143.999 99.0801 145.104 99.0801C146.208 99.0801 147.104 98.1846 147.104 97.0801C147.104 95.9755 146.208 95.0801 145.104 95.0801C143.999 95.0801 143.104 95.9755 143.104 97.0801ZM53.3473 97.4551C53.5544 97.4551 53.7223 97.2872 53.7223 97.0801C53.7223 96.873 53.5544 96.7051 53.3473 96.7051V97.0801V97.4551ZM55.2995 96.7051C55.0924 96.7051 54.9245 96.873 54.9245 97.0801C54.9245 97.2872 55.0924 97.4551 55.2995 97.4551V97.0801V96.7051ZM59.2041 97.4551C59.4112 97.4551 59.5791 97.2872 59.5791 97.0801C59.5791 96.873 59.4112 96.7051 59.2041 96.7051V97.0801V97.4551ZM61.1563 96.7051C60.9492 96.7051 60.7813 96.873 60.7813 97.0801C60.7813 97.2872 60.9492 97.4551 61.1563 97.4551V97.0801V96.7051ZM65.0609 97.4551C65.268 97.4551 65.4359 97.2872 65.4359 97.0801C65.4359 96.873 65.268 96.7051 65.0609 96.7051V97.0801V97.4551ZM67.0131 96.7051C66.806 96.7051 66.6381 96.873 66.6381 97.0801C66.6381 97.2872 66.806 97.4551 67.0131 97.4551V97.0801V96.7051ZM70.9177 97.4551C71.1248 97.4551 71.2927 97.2872 71.2927 97.0801C71.2927 96.873 71.1248 96.7051 70.9177 96.7051V97.0801V97.4551ZM72.8699 96.7051C72.6628 96.7051 72.4949 96.873 72.4949 97.0801C72.4949 97.2872 72.6628 97.4551 72.8699 97.4551V97.0801V96.7051ZM76.7745 97.4551C76.9816 97.4551 77.1495 97.2872 77.1495 97.0801C77.1495 96.873 76.9816 96.7051 76.7745 96.7051V97.0801V97.4551ZM78.7267 96.7051C78.5196 96.7051 78.3517 96.873 78.3517 97.0801C78.3517 97.2872 78.5196 97.4551 78.7267 97.4551V97.0801V96.7051ZM82.6312 97.4551C82.8384 97.4551 83.0062 97.2872 83.0062 97.0801C83.0062 96.873 82.8384 96.7051 82.6312 96.7051V97.0801V97.4551ZM84.5835 96.7051C84.3764 96.7051 84.2085 96.873 84.2085 97.0801C84.2085 97.2872 84.3764 97.4551 84.5835 97.4551V97.0801V96.7051ZM88.488 97.4551C88.6951 97.4551 88.863 97.2872 88.863 97.0801C88.863 96.873 88.6951 96.7051 88.488 96.7051V97.0801V97.4551ZM90.4403 96.7051C90.2332 96.7051 90.0653 96.873 90.0653 97.0801C90.0653 97.2872 90.2332 97.4551 90.4403 97.4551V97.0801V96.7051ZM94.3448 97.4551C94.5519 97.4551 94.7198 97.2872 94.7198 97.0801C94.7198 96.873 94.5519 96.7051 94.3448 96.7051V97.0801V97.4551ZM96.2971 96.7051C96.09 96.7051 95.9221 96.873 95.9221 97.0801C95.9221 97.2872 96.09 97.4551 96.2971 97.4551V97.0801V96.7051ZM100.202 97.4551C100.409 97.4551 100.577 97.2872 100.577 97.0801C100.577 96.873 100.409 96.7051 100.202 96.7051V97.0801V97.4551ZM102.154 96.7051C101.947 96.7051 101.779 96.873 101.779 97.0801C101.779 97.2872 101.947 97.4551 102.154 97.4551V97.0801V96.7051ZM106.058 97.4551C106.266 97.4551 106.433 97.2872 106.433 97.0801C106.433 96.873 106.266 96.7051 106.058 96.7051V97.0801V97.4551ZM108.011 96.7051C107.804 96.7051 107.636 96.873 107.636 97.0801C107.636 97.2872 107.804 97.4551 108.011 97.4551V97.0801V96.7051ZM111.915 97.4551C112.122 97.4551 112.29 97.2872 112.29 97.0801C112.29 96.873 112.122 96.7051 111.915 96.7051V97.0801V97.4551ZM113.867 96.7051C113.66 96.7051 113.492 96.873 113.492 97.0801C113.492 97.2872 113.66 97.4551 113.867 97.4551V97.0801V96.7051ZM117.772 97.4551C117.979 97.4551 118.147 97.2872 118.147 97.0801C118.147 96.873 117.979 96.7051 117.772 96.7051V97.0801V97.4551ZM119.724 96.7051C119.517 96.7051 119.349 96.873 119.349 97.0801C119.349 97.2872 119.517 97.4551 119.724 97.4551V97.0801V96.7051ZM123.629 97.4551C123.836 97.4551 124.004 97.2872 124.004 97.0801C124.004 96.873 123.836 96.7051 123.629 96.7051V97.0801V97.4551ZM125.581 96.7051C125.374 96.7051 125.206 96.873 125.206 97.0801C125.206 97.2872 125.374 97.4551 125.581 97.4551V97.0801V96.7051ZM129.486 97.4551C129.693 97.4551 129.861 97.2872 129.861 97.0801C129.861 96.873 129.693 96.7051 129.486 96.7051V97.0801V97.4551ZM131.438 96.7051C131.231 96.7051 131.063 96.873 131.063 97.0801C131.063 97.2872 131.231 97.4551 131.438 97.4551V97.0801V96.7051ZM135.342 97.4551C135.549 97.4551 135.717 97.2872 135.717 97.0801C135.717 96.873 135.549 96.7051 135.342 96.7051V97.0801V97.4551ZM137.295 96.7051C137.088 96.7051 136.92 96.873 136.92 97.0801C136.92 97.2872 137.088 97.4551 137.295 97.4551V97.0801V96.7051ZM141.199 97.4551C141.406 97.4551 141.574 97.2872 141.574 97.0801C141.574 96.873 141.406 96.7051 141.199 96.7051V97.0801V97.4551ZM143.151 96.7051C142.944 96.7051 142.776 96.873 142.776 97.0801C142.776 97.2872 142.944 97.4551 143.151 97.4551V97.0801V96.7051ZM51.395 97.0801V97.4551H53.3473V97.0801V96.7051H51.395V97.0801ZM55.2995 97.0801V97.4551H59.2041V97.0801V96.7051H55.2995V97.0801ZM61.1563 97.0801V97.4551H65.0609V97.0801V96.7051H61.1563V97.0801ZM67.0131 97.0801V97.4551H70.9177V97.0801V96.7051H67.0131V97.0801ZM72.8699 97.0801V97.4551H76.7745V97.0801V96.7051H72.8699V97.0801ZM78.7267 97.0801V97.4551H82.6312V97.0801V96.7051H78.7267V97.0801ZM84.5835 97.0801V97.4551H88.488V97.0801V96.7051H84.5835V97.0801ZM90.4403 97.0801V97.4551H94.3448V97.0801V96.7051H90.4403V97.0801ZM96.2971 97.0801V97.4551H100.202V97.0801V96.7051H96.2971V97.0801ZM102.154 97.0801V97.4551H106.058V97.0801V96.7051H102.154V97.0801ZM108.011 97.0801V97.4551H111.915V97.0801V96.7051H108.011V97.0801ZM113.867 97.0801V97.4551H117.772V97.0801V96.7051H113.867V97.0801ZM119.724 97.0801V97.4551H123.629V97.0801V96.7051H119.724V97.0801ZM125.581 97.0801V97.4551H129.486V97.0801V96.7051H125.581V97.0801ZM131.438 97.0801V97.4551H135.342V97.0801V96.7051H131.438V97.0801ZM137.295 97.0801V97.4551H141.199V97.0801V96.7051H137.295V97.0801ZM143.151 97.0801V97.4551H145.104V97.0801V96.7051H143.151V97.0801Z" fill="#7E98DE"/>
<path d="M52.0246 23.3828C50.9201 23.3828 50.0246 24.2782 50.0246 25.3828C50.0246 26.4874 50.9201 27.3828 52.0246 27.3828C53.1292 27.3828 54.0246 26.4874 54.0246 25.3828C54.0246 24.2782 53.1292 23.3828 52.0246 23.3828ZM95.9271 97.4341C96.123 97.5013 96.3363 97.397 96.4035 97.2011C96.4708 97.0052 96.3665 96.7919 96.1706 96.7247L96.0488 97.0794L95.9271 97.4341ZM84.331 93.0571L84.2092 93.4118L84.331 93.0571ZM52.8123 25.7578C53.0194 25.7578 53.1873 25.5899 53.1873 25.3828C53.1873 25.1757 53.0194 25.0078 52.8123 25.0078L52.8123 25.3828L52.8123 25.7578ZM54.3876 25.0078C54.1805 25.0078 54.0126 25.1757 54.0126 25.3828C54.0126 25.5899 54.1805 25.7578 54.3876 25.7578L54.3876 25.3828L54.3876 25.0078ZM55.9629 25.7578C56.17 25.7578 56.3379 25.5899 56.3379 25.3828C56.3379 25.1757 56.17 25.0078 55.9629 25.0078L55.9629 25.3828L55.9629 25.7578ZM57.5382 25.0078C57.3311 25.0078 57.1632 25.1757 57.1632 25.3828C57.1632 25.5899 57.3311 25.7578 57.5382 25.7578L57.5382 25.3828L57.5382 25.0078ZM59.1135 25.7578C59.3206 25.7578 59.4885 25.5899 59.4885 25.3828C59.4885 25.1757 59.3206 25.0078 59.1135 25.0078L59.1135 25.3828L59.1135 25.7578ZM60.6888 25.0078C60.4817 25.0078 60.3138 25.1757 60.3138 25.3828C60.3138 25.5899 60.4817 25.7578 60.6888 25.7578L60.6888 25.3828L60.6888 25.0078ZM62.2641 25.7578C62.4712 25.7578 62.6391 25.5899 62.6391 25.3828C62.6391 25.1757 62.4712 25.0078 62.2641 25.0078L62.2641 25.3828L62.2641 25.7578ZM63.8394 25.0078C63.6323 25.0078 63.4644 25.1757 63.4644 25.3828C63.4644 25.5899 63.6323 25.7578 63.8394 25.7578L63.8394 25.3828L63.8394 25.0078ZM65.4147 25.7578C65.6218 25.7578 65.7897 25.5899 65.7897 25.3828C65.7897 25.1757 65.6218 25.0078 65.4147 25.0078L65.4147 25.3828L65.4147 25.7578ZM66.99 25.0078C66.7829 25.0078 66.615 25.1757 66.615 25.3828C66.615 25.5899 66.7829 25.7578 66.99 25.7578L66.99 25.3828L66.99 25.0078ZM68.5653 25.7578C68.7725 25.7578 68.9403 25.5899 68.9403 25.3828C68.9403 25.1757 68.7725 25.0078 68.5653 25.0078L68.5653 25.3828L68.5653 25.7578ZM70.1407 25.0078C69.9335 25.0078 69.7657 25.1757 69.7657 25.3828C69.7657 25.5899 69.9335 25.7578 70.1407 25.7578L70.1407 25.3828L70.1407 25.0078ZM71.6764 25.794C71.8826 25.8141 72.0659 25.6632 72.086 25.4571C72.106 25.251 71.9552 25.0676 71.7491 25.0475L71.7127 25.4208L71.6764 25.794ZM73.3601 25.3664C73.1619 25.3064 72.9525 25.4184 72.8925 25.6166C72.8324 25.8148 72.9444 26.0242 73.1426 26.0842L73.2514 25.7253L73.3601 25.3664ZM74.5231 26.6566C74.7057 26.7544 74.9329 26.6856 75.0307 26.5031C75.1285 26.3205 75.0598 26.0932 74.8772 25.9955L74.7002 26.326L74.5231 26.6566ZM76.2416 26.9087C76.0816 26.7773 75.8453 26.8004 75.7138 26.9604C75.5823 27.1205 75.6054 27.3568 75.7655 27.4882L76.0035 27.1985L76.2416 26.9087ZM76.8229 28.5456C76.9544 28.7057 77.1907 28.7288 77.3507 28.5973C77.5107 28.4659 77.5338 28.2295 77.4024 28.0695L77.1126 28.3076L76.8229 28.5456ZM78.3157 29.4339C78.2179 29.2513 77.9906 29.1826 77.808 29.2804C77.6255 29.3782 77.5567 29.6055 77.6545 29.788L77.9851 29.611L78.3157 29.4339ZM78.2269 31.1685C78.287 31.3667 78.4963 31.4787 78.6945 31.4186C78.8927 31.3586 79.0047 31.1492 78.9447 30.951L78.5858 31.0597L78.2269 31.1685ZM79.2636 32.562C79.2435 32.3559 79.0601 32.2051 78.854 32.2251C78.6479 32.2452 78.497 32.4286 78.5171 32.6347L78.8903 32.5984L79.2636 32.562ZM78.5533 34.1491C78.5533 34.3562 78.7212 34.5241 78.9283 34.5241C79.1354 34.5241 79.3033 34.3562 79.3033 34.1491L78.9283 34.1491L78.5533 34.1491ZM79.3033 35.6817C79.3033 35.4746 79.1354 35.3067 78.9283 35.3067C78.7212 35.3067 78.5533 35.4746 78.5533 35.6817L78.9283 35.6817L79.3033 35.6817ZM78.5533 37.2143C78.5533 37.4214 78.7212 37.5893 78.9283 37.5893C79.1354 37.5893 79.3033 37.4214 79.3033 37.2143L78.9283 37.2143L78.5533 37.2143ZM79.3033 38.7468C79.3033 38.5397 79.1354 38.3718 78.9283 38.3718C78.7212 38.3718 78.5533 38.5397 78.5533 38.7468L78.9283 38.7468L79.3033 38.7468ZM78.5533 40.2794C78.5533 40.4865 78.7212 40.6544 78.9283 40.6544C79.1354 40.6544 79.3033 40.4865 79.3033 40.2794L78.9283 40.2794L78.5533 40.2794ZM79.3033 41.812C79.3033 41.6049 79.1354 41.437 78.9283 41.437C78.7212 41.437 78.5533 41.6049 78.5533 41.812L78.9283 41.812L79.3033 41.812ZM78.5533 43.3446C78.5533 43.5517 78.7212 43.7196 78.9283 43.7196C79.1354 43.7196 79.3033 43.5517 79.3033 43.3446L78.9283 43.3446L78.5533 43.3446ZM79.3033 44.8772C79.3033 44.67 79.1354 44.5022 78.9283 44.5022C78.7212 44.5022 78.5533 44.67 78.5533 44.8772L78.9283 44.8772L79.3033 44.8772ZM78.5533 46.4097C78.5533 46.6168 78.7212 46.7847 78.9283 46.7847C79.1354 46.7847 79.3033 46.6168 79.3033 46.4097L78.9283 46.4097L78.5533 46.4097ZM79.3033 47.9423C79.3033 47.7352 79.1354 47.5673 78.9283 47.5673C78.7212 47.5673 78.5533 47.7352 78.5533 47.9423L78.9283 47.9423L79.3033 47.9423ZM78.5533 49.4749C78.5533 49.682 78.7212 49.8499 78.9283 49.8499C79.1354 49.8499 79.3033 49.682 79.3033 49.4749L78.9283 49.4749L78.5533 49.4749ZM79.3033 51.0075C79.3033 50.8004 79.1354 50.6325 78.9283 50.6325C78.7212 50.6325 78.5533 50.8004 78.5533 51.0075L78.9283 51.0075L79.3033 51.0075ZM78.5533 52.5401C78.5533 52.7472 78.7212 52.9151 78.9283 52.9151C79.1354 52.9151 79.3033 52.7472 79.3033 52.5401L78.9283 52.5401L78.5533 52.5401ZM79.3033 54.0726C79.3033 53.8655 79.1354 53.6976 78.9283 53.6976C78.7212 53.6976 78.5533 53.8655 78.5533 54.0726L78.9283 54.0726L79.3033 54.0726ZM78.5533 55.6052C78.5533 55.8123 78.7212 55.9802 78.9283 55.9802C79.1354 55.9802 79.3033 55.8123 79.3033 55.6052L78.9283 55.6052L78.5533 55.6052ZM79.3033 57.1378C79.3033 56.9307 79.1354 56.7628 78.9283 56.7628C78.7212 56.7628 78.5533 56.9307 78.5533 57.1378L78.9283 57.1378L79.3033 57.1378ZM78.5533 58.6704C78.5533 58.8775 78.7212 59.0454 78.9283 59.0454C79.1354 59.0454 79.3033 58.8775 79.3033 58.6704L78.9283 58.6704L78.5533 58.6704ZM79.3033 60.2029C79.3033 59.9958 79.1354 59.8279 78.9283 59.8279C78.7212 59.8279 78.5533 59.9958 78.5533 60.2029L78.9283 60.2029L79.3033 60.2029ZM78.5533 61.7355C78.5533 61.9426 78.7212 62.1105 78.9283 62.1105C79.1354 62.1105 79.3033 61.9426 79.3033 61.7355L78.9283 61.7355L78.5533 61.7355ZM79.3033 63.2681C79.3033 63.061 79.1354 62.8931 78.9283 62.8931C78.7212 62.8931 78.5533 63.061 78.5533 63.2681L78.9283 63.2681L79.3033 63.2681ZM78.5533 64.8007C78.5533 65.0078 78.7212 65.1757 78.9283 65.1757C79.1354 65.1757 79.3033 65.0078 79.3033 64.8007L78.9283 64.8007L78.5533 64.8007ZM79.3033 66.3333C79.3033 66.1262 79.1354 65.9583 78.9283 65.9583C78.7212 65.9583 78.5533 66.1262 78.5533 66.3333L78.9283 66.3333L79.3033 66.3333ZM78.5533 67.8658C78.5533 68.073 78.7212 68.2408 78.9283 68.2408C79.1354 68.2408 79.3033 68.073 79.3033 67.8658L78.9283 67.8658L78.5533 67.8658ZM79.3033 69.3984C79.3033 69.1913 79.1354 69.0234 78.9283 69.0234C78.7212 69.0234 78.5533 69.1913 78.5533 69.3984L78.9283 69.3984L79.3033 69.3984ZM78.5533 70.931C78.5533 71.1381 78.7212 71.306 78.9283 71.306C79.1354 71.306 79.3033 71.1381 79.3033 70.931L78.9283 70.931L78.5533 70.931ZM79.3033 72.4636C79.3033 72.2565 79.1354 72.0886 78.9283 72.0886C78.7212 72.0886 78.5533 72.2565 78.5533 72.4636L78.9283 72.4636L79.3033 72.4636ZM78.5533 73.9962C78.5533 74.2033 78.7212 74.3712 78.9283 74.3712C79.1354 74.3712 79.3033 74.2033 79.3033 73.9962L78.9283 73.9962L78.5533 73.9962ZM79.3033 75.5287C79.3033 75.3216 79.1354 75.1537 78.9283 75.1537C78.7212 75.1537 78.5533 75.3216 78.5533 75.5287L78.9283 75.5287L79.3033 75.5287ZM78.5533 77.0613C78.5533 77.2684 78.7212 77.4363 78.9283 77.4363C79.1354 77.4363 79.3033 77.2684 79.3033 77.0613L78.9283 77.0613L78.5533 77.0613ZM79.3033 78.5939C79.3033 78.3868 79.1354 78.2189 78.9283 78.2189C78.7212 78.2189 78.5533 78.3868 78.5533 78.5939L78.9283 78.5939L79.3033 78.5939ZM78.5533 80.1265C78.5533 80.3336 78.7212 80.5015 78.9283 80.5015C79.1354 80.5015 79.3033 80.3336 79.3033 80.1265L78.9283 80.1265L78.5533 80.1265ZM79.3033 81.659C79.3033 81.4519 79.1354 81.284 78.9283 81.284C78.7212 81.284 78.5533 81.4519 78.5533 81.659L78.9283 81.659L79.3033 81.659ZM78.5533 83.1916C78.5533 83.3987 78.7212 83.5666 78.9283 83.5666C79.1354 83.5666 79.3033 83.3987 79.3033 83.1916L78.9283 83.1916L78.5533 83.1916ZM79.3033 84.7242C79.3033 84.5171 79.1354 84.3492 78.9283 84.3492C78.7212 84.3492 78.5533 84.5171 78.5533 84.7242L78.9283 84.7242L79.3033 84.7242ZM78.5978 86.3546C78.6191 86.5606 78.8033 86.7103 79.0093 86.689C79.2153 86.6678 79.3651 86.4835 79.3438 86.2775L78.9708 86.316L78.5978 86.3546ZM79.6664 87.817C79.6031 87.6197 79.392 87.5111 79.1948 87.5743C78.9976 87.6375 78.8889 87.8486 78.9521 88.0459L79.3092 87.9314L79.6664 87.817ZM79.6467 89.6282C79.749 89.8082 79.978 89.8712 80.158 89.7688C80.3381 89.6665 80.401 89.4375 80.2987 89.2575L79.9727 89.4428L79.6467 89.6282ZM81.213 90.538C81.0759 90.3827 80.8389 90.3679 80.6837 90.505C80.5284 90.6421 80.5136 90.8791 80.6507 91.0343L80.9318 90.7861L81.213 90.538ZM81.9218 92.205C82.0878 92.3288 82.3228 92.2946 82.4466 92.1285C82.5704 91.9625 82.5362 91.7276 82.3702 91.6038L82.146 91.9043L81.9218 92.205ZM83.7215 92.4086C83.5336 92.3216 83.3107 92.4034 83.2237 92.5914C83.1367 92.7793 83.2185 93.0022 83.4064 93.0892L83.564 92.7489L83.7215 92.4086ZM84.9416 93.6632C85.1375 93.7305 85.3508 93.6262 85.418 93.4303C85.4853 93.2344 85.381 93.0211 85.1851 92.9538L85.0634 93.3085L84.9416 93.6632ZM86.6498 93.4566C86.4539 93.3894 86.2406 93.4937 86.1734 93.6896C86.1062 93.8854 86.2104 94.0988 86.4063 94.166L86.5281 93.8113L86.6498 93.4566ZM87.8711 94.6688C88.067 94.736 88.2803 94.6317 88.3475 94.4358C88.4147 94.24 88.3104 94.0266 88.1146 93.9594L87.9928 94.3141L87.8711 94.6688ZM89.5793 94.4622C89.3834 94.3949 89.1701 94.4992 89.1029 94.6951C89.0356 94.891 89.1399 95.1043 89.3358 95.1716L89.4575 94.8169L89.5793 94.4622ZM90.8005 95.6743C90.9964 95.7416 91.2097 95.6373 91.277 95.4414C91.3442 95.2455 91.2399 95.0322 91.044 94.965L90.9223 95.3196L90.8005 95.6743ZM92.5088 95.4677C92.3129 95.4005 92.0996 95.5048 92.0323 95.7007C91.9651 95.8966 92.0694 96.1099 92.2653 96.1771L92.387 95.8224L92.5088 95.4677ZM93.73 96.6799C93.9259 96.7471 94.1392 96.6429 94.2064 96.447C94.2737 96.2511 94.1694 96.0378 93.9735 95.9705L93.8517 96.3252L93.73 96.6799ZM95.4382 96.4733C95.2423 96.4061 95.029 96.5104 94.9618 96.7062C94.8945 96.9021 94.9988 97.1154 95.1947 97.1827L95.3165 96.828L95.4382 96.4733ZM52.0246 25.3828L52.0246 25.7578L52.8123 25.7578L52.8123 25.3828L52.8123 25.0078L52.0246 25.0078L52.0246 25.3828ZM54.3876 25.3828L54.3876 25.7578L55.9629 25.7578L55.9629 25.3828L55.9629 25.0078L54.3876 25.0078L54.3876 25.3828ZM57.5382 25.3828L57.5382 25.7578L59.1135 25.7578L59.1135 25.3828L59.1135 25.0078L57.5382 25.0078L57.5382 25.3828ZM60.6888 25.3828L60.6888 25.7578L62.2641 25.7578L62.2641 25.3828L62.2641 25.0078L60.6888 25.0078L60.6888 25.3828ZM63.8394 25.3828L63.8394 25.7578L65.4147 25.7578L65.4147 25.3828L65.4147 25.0078L63.8394 25.0078L63.8394 25.3828ZM66.99 25.3828L66.99 25.7578L68.5653 25.7578L68.5653 25.3828L68.5653 25.0078L66.99 25.0078L66.99 25.3828ZM70.1407 25.3828L70.1407 25.7578L70.9283 25.7578L70.9283 25.3828L70.9283 25.0078L70.1407 25.0078L70.1407 25.3828ZM70.9283 25.3828L70.9283 25.7578C71.1808 25.7578 71.4304 25.7701 71.6764 25.794L71.7127 25.4208L71.7491 25.0475C71.4789 25.0213 71.2051 25.0078 70.9283 25.0078L70.9283 25.3828ZM73.2514 25.7253L73.1426 26.0842C73.6247 26.2302 74.0865 26.4228 74.5231 26.6566L74.7002 26.326L74.8772 25.9955C74.3976 25.7386 73.89 25.527 73.3601 25.3664L73.2514 25.7253ZM76.0035 27.1985L75.7655 27.4882C76.1515 27.8054 76.5058 28.1597 76.8229 28.5456L77.1126 28.3076L77.4024 28.0695C77.0542 27.6458 76.6653 27.2569 76.2416 26.9087L76.0035 27.1985ZM77.9851 29.611L77.6545 29.788C77.8884 30.2246 78.0809 30.6865 78.2269 31.1685L78.5858 31.0597L78.9447 30.951C78.7842 30.4211 78.5726 29.9135 78.3157 29.4339L77.9851 29.611ZM78.8903 32.5984L78.5171 32.6347C78.541 32.8807 78.5533 33.1303 78.5533 33.3828L78.9283 33.3828L79.3033 33.3828C79.3033 33.106 79.2899 32.8322 79.2636 32.562L78.8903 32.5984ZM78.9283 33.3828L78.5533 33.3828L78.5533 34.1491L78.9283 34.1491L79.3033 34.1491L79.3033 33.3828L78.9283 33.3828ZM78.9283 35.6817L78.5533 35.6817L78.5533 37.2143L78.9283 37.2143L79.3033 37.2143L79.3033 35.6817L78.9283 35.6817ZM78.9283 38.7468L78.5533 38.7468L78.5533 40.2794L78.9283 40.2794L79.3033 40.2794L79.3033 38.7468L78.9283 38.7468ZM78.9283 41.812L78.5533 41.812L78.5533 43.3446L78.9283 43.3446L79.3033 43.3446L79.3033 41.812L78.9283 41.812ZM78.9283 44.8772L78.5533 44.8772L78.5533 46.4097L78.9283 46.4097L79.3033 46.4097L79.3033 44.8772L78.9283 44.8772ZM78.9283 47.9423L78.5533 47.9423L78.5533 49.4749L78.9283 49.4749L79.3033 49.4749L79.3033 47.9423L78.9283 47.9423ZM78.9283 51.0075L78.5533 51.0075L78.5533 52.5401L78.9283 52.5401L79.3033 52.5401L79.3033 51.0075L78.9283 51.0075ZM78.9283 54.0726L78.5533 54.0726L78.5533 55.6052L78.9283 55.6052L79.3033 55.6052L79.3033 54.0726L78.9283 54.0726ZM78.9283 57.1378L78.5533 57.1378L78.5533 58.6704L78.9283 58.6704L79.3033 58.6704L79.3033 57.1378L78.9283 57.1378ZM78.9283 60.2029L78.5533 60.2029L78.5533 61.7355L78.9283 61.7355L79.3033 61.7355L79.3033 60.2029L78.9283 60.2029ZM78.9283 63.2681L78.5533 63.2681L78.5533 64.8007L78.9283 64.8007L79.3033 64.8007L79.3033 63.2681L78.9283 63.2681ZM78.9283 66.3333L78.5533 66.3333L78.5533 67.8658L78.9283 67.8658L79.3033 67.8658L79.3033 66.3333L78.9283 66.3333ZM78.9283 69.3984L78.5533 69.3984L78.5533 70.931L78.9283 70.931L79.3033 70.931L79.3033 69.3984L78.9283 69.3984ZM78.9283 72.4636L78.5533 72.4636L78.5533 73.9962L78.9283 73.9962L79.3033 73.9962L79.3033 72.4636L78.9283 72.4636ZM78.9283 75.5287L78.5533 75.5287L78.5533 77.0613L78.9283 77.0613L79.3033 77.0613L79.3033 75.5287L78.9283 75.5287ZM78.9283 78.5939L78.5533 78.5939L78.5533 80.1265L78.9283 80.1265L79.3033 80.1265L79.3033 78.5939L78.9283 78.5939ZM78.9283 81.659L78.5533 81.659L78.5533 83.1916L78.9283 83.1916L79.3033 83.1916L79.3033 81.659L78.9283 81.659ZM78.9283 84.7242L78.5533 84.7242L78.5533 85.4905L78.9283 85.4905L79.3033 85.4905L79.3033 84.7242L78.9283 84.7242ZM78.9283 85.4905L78.5533 85.4905C78.5533 85.7814 78.5683 86.0697 78.5978 86.3546L78.9708 86.316L79.3438 86.2775C79.317 86.0181 79.3033 85.7555 79.3033 85.4905L78.9283 85.4905ZM79.3092 87.9314L78.9521 88.0459C79.1293 88.5985 79.3626 89.1285 79.6467 89.6282L79.9727 89.4428L80.2987 89.2575C80.04 88.8025 79.8276 88.32 79.6664 87.817L79.3092 87.9314ZM80.9318 90.7861L80.6507 91.0343C81.031 91.4652 81.4566 91.858 81.9218 92.205L82.146 91.9043L82.3702 91.6038C81.9467 91.2879 81.5593 90.9303 81.213 90.538L80.9318 90.7861ZM83.564 92.7489L83.4064 93.0892C83.6663 93.2096 83.9341 93.3174 84.2092 93.4118L84.331 93.0571L84.4527 92.7025C84.2021 92.6164 83.9581 92.5182 83.7215 92.4086L83.564 92.7489ZM84.331 93.0571L84.2092 93.4118L84.9416 93.6632L85.0634 93.3085L85.1851 92.9538L84.4527 92.7025L84.331 93.0571ZM86.5281 93.8113L86.4063 94.166L87.8711 94.6688L87.9928 94.3141L88.1146 93.9594L86.6498 93.4566L86.5281 93.8113ZM89.4575 94.8169L89.3358 95.1716L90.8005 95.6743L90.9223 95.3196L91.044 94.965L89.5793 94.4622L89.4575 94.8169ZM92.387 95.8224L92.2653 96.1771L93.73 96.6799L93.8517 96.3252L93.9735 95.9705L92.5088 95.4677L92.387 95.8224ZM95.3165 96.828L95.1947 97.1827L95.9271 97.4341L96.0488 97.0794L96.1706 96.7247L95.4382 96.4733L95.3165 96.828Z" fill="#7E98DE"/>
<path d="M52.0246 170.776C50.9201 170.776 50.0246 169.881 50.0246 168.776C50.0246 167.672 50.9201 166.776 52.0246 166.776C53.1292 166.776 54.0246 167.672 54.0246 168.776C54.0246 169.881 53.1292 170.776 52.0246 170.776ZM95.9271 96.7251C96.123 96.6579 96.3363 96.7622 96.4035 96.958C96.4708 97.1539 96.3665 97.3672 96.1706 97.4345L96.0488 97.0798L95.9271 96.7251ZM84.331 101.102L84.2092 100.747L84.331 101.102ZM52.8123 168.401C53.0194 168.401 53.1873 168.569 53.1873 168.776C53.1873 168.983 53.0194 169.151 52.8123 169.151L52.8123 168.776L52.8123 168.401ZM54.3876 169.151C54.1805 169.151 54.0126 168.983 54.0126 168.776C54.0126 168.569 54.1805 168.401 54.3876 168.401L54.3876 168.776L54.3876 169.151ZM55.9629 168.401C56.17 168.401 56.3379 168.569 56.3379 168.776C56.3379 168.983 56.17 169.151 55.9629 169.151L55.9629 168.776L55.9629 168.401ZM57.5382 169.151C57.3311 169.151 57.1632 168.983 57.1632 168.776C57.1632 168.569 57.3311 168.401 57.5382 168.401L57.5382 168.776L57.5382 169.151ZM59.1135 168.401C59.3206 168.401 59.4885 168.569 59.4885 168.776C59.4885 168.983 59.3206 169.151 59.1135 169.151L59.1135 168.776L59.1135 168.401ZM60.6888 169.151C60.4817 169.151 60.3138 168.983 60.3138 168.776C60.3138 168.569 60.4817 168.401 60.6888 168.401L60.6888 168.776L60.6888 169.151ZM62.2641 168.401C62.4712 168.401 62.6391 168.569 62.6391 168.776C62.6391 168.983 62.4712 169.151 62.2641 169.151L62.2641 168.776L62.2641 168.401ZM63.8394 169.151C63.6323 169.151 63.4644 168.983 63.4644 168.776C63.4644 168.569 63.6323 168.401 63.8394 168.401L63.8394 168.776L63.8394 169.151ZM65.4147 168.401C65.6218 168.401 65.7897 168.569 65.7897 168.776C65.7897 168.983 65.6218 169.151 65.4147 169.151L65.4147 168.776L65.4147 168.401ZM66.99 169.151C66.7829 169.151 66.615 168.983 66.615 168.776C66.615 168.569 66.7829 168.401 66.99 168.401L66.99 168.776L66.99 169.151ZM68.5653 168.401C68.7725 168.401 68.9403 168.569 68.9403 168.776C68.9403 168.983 68.7725 169.151 68.5653 169.151L68.5653 168.776L68.5653 168.401ZM70.1407 169.151C69.9335 169.151 69.7657 168.983 69.7657 168.776C69.7657 168.569 69.9335 168.401 70.1407 168.401L70.1407 168.776L70.1407 169.151ZM71.6764 168.365C71.8826 168.345 72.0659 168.496 72.086 168.702C72.106 168.908 71.9552 169.092 71.7491 169.112L71.7127 168.738L71.6764 168.365ZM73.3601 168.793C73.1619 168.853 72.9525 168.741 72.8925 168.543C72.8324 168.344 72.9444 168.135 73.1426 168.075L73.2514 168.434L73.3601 168.793ZM74.5231 167.503C74.7057 167.405 74.9329 167.474 75.0307 167.656C75.1285 167.839 75.0598 168.066 74.8772 168.164L74.7002 167.833L74.5231 167.503ZM76.2416 167.25C76.0816 167.382 75.8453 167.359 75.7138 167.199C75.5823 167.039 75.6054 166.802 75.7655 166.671L76.0035 166.961L76.2416 167.25ZM76.8229 165.614C76.9544 165.454 77.1907 165.43 77.3507 165.562C77.5107 165.693 77.5338 165.93 77.4024 166.09L77.1126 165.852L76.8229 165.614ZM78.3157 164.725C78.2179 164.908 77.9906 164.977 77.808 164.879C77.6255 164.781 77.5567 164.554 77.6545 164.371L77.9851 164.548L78.3157 164.725ZM78.2269 162.991C78.287 162.792 78.4963 162.68 78.6945 162.741C78.8927 162.801 79.0047 163.01 78.9447 163.208L78.5858 163.099L78.2269 162.991ZM79.2636 161.597C79.2435 161.803 79.0601 161.954 78.854 161.934C78.6479 161.914 78.497 161.731 78.5171 161.524L78.8903 161.561L79.2636 161.597ZM78.5533 160.01C78.5533 159.803 78.7212 159.635 78.9283 159.635C79.1354 159.635 79.3033 159.803 79.3033 160.01L78.9283 160.01L78.5533 160.01ZM79.3033 158.477C79.3033 158.685 79.1354 158.852 78.9283 158.852C78.7212 158.852 78.5533 158.685 78.5533 158.477L78.9283 158.477L79.3033 158.477ZM78.5533 156.945C78.5533 156.738 78.7212 156.57 78.9283 156.57C79.1354 156.57 79.3033 156.738 79.3033 156.945L78.9283 156.945L78.5533 156.945ZM79.3033 155.412C79.3033 155.619 79.1354 155.787 78.9283 155.787C78.7212 155.787 78.5533 155.619 78.5533 155.412L78.9283 155.412L79.3033 155.412ZM78.5533 153.88C78.5533 153.673 78.7212 153.505 78.9283 153.505C79.1354 153.505 79.3033 153.673 79.3033 153.88L78.9283 153.88L78.5533 153.88ZM79.3033 152.347C79.3033 152.554 79.1354 152.722 78.9283 152.722C78.7212 152.722 78.5533 152.554 78.5533 152.347L78.9283 152.347L79.3033 152.347ZM78.5533 150.815C78.5533 150.607 78.7212 150.44 78.9283 150.44C79.1354 150.44 79.3033 150.607 79.3033 150.815L78.9283 150.815L78.5533 150.815ZM79.3033 149.282C79.3033 149.489 79.1354 149.657 78.9283 149.657C78.7212 149.657 78.5533 149.489 78.5533 149.282L78.9283 149.282L79.3033 149.282ZM78.5533 147.749C78.5533 147.542 78.7212 147.374 78.9283 147.374C79.1354 147.374 79.3033 147.542 79.3033 147.749L78.9283 147.749L78.5533 147.749ZM79.3033 146.217C79.3033 146.424 79.1354 146.592 78.9283 146.592C78.7212 146.592 78.5533 146.424 78.5533 146.217L78.9283 146.217L79.3033 146.217ZM78.5533 144.684C78.5533 144.477 78.7212 144.309 78.9283 144.309C79.1354 144.309 79.3033 144.477 79.3033 144.684L78.9283 144.684L78.5533 144.684ZM79.3033 143.152C79.3033 143.359 79.1354 143.527 78.9283 143.527C78.7212 143.527 78.5533 143.359 78.5533 143.152L78.9283 143.152L79.3033 143.152ZM78.5533 141.619C78.5533 141.412 78.7212 141.244 78.9283 141.244C79.1354 141.244 79.3033 141.412 79.3033 141.619L78.9283 141.619L78.5533 141.619ZM79.3033 140.087C79.3033 140.294 79.1354 140.462 78.9283 140.462C78.7212 140.462 78.5533 140.294 78.5533 140.087L78.9283 140.087L79.3033 140.087ZM78.5533 138.554C78.5533 138.347 78.7212 138.179 78.9283 138.179C79.1354 138.179 79.3033 138.347 79.3033 138.554L78.9283 138.554L78.5533 138.554ZM79.3033 137.021C79.3033 137.228 79.1354 137.396 78.9283 137.396C78.7212 137.396 78.5533 137.228 78.5533 137.021L78.9283 137.021L79.3033 137.021ZM78.5533 135.489C78.5533 135.282 78.7212 135.114 78.9283 135.114C79.1354 135.114 79.3033 135.282 79.3033 135.489L78.9283 135.489L78.5533 135.489ZM79.3033 133.956C79.3033 134.163 79.1354 134.331 78.9283 134.331C78.7212 134.331 78.5533 134.163 78.5533 133.956L78.9283 133.956L79.3033 133.956ZM78.5533 132.424C78.5533 132.217 78.7212 132.049 78.9283 132.049C79.1354 132.049 79.3033 132.217 79.3033 132.424L78.9283 132.424L78.5533 132.424ZM79.3033 130.891C79.3033 131.098 79.1354 131.266 78.9283 131.266C78.7212 131.266 78.5533 131.098 78.5533 130.891L78.9283 130.891L79.3033 130.891ZM78.5533 129.358C78.5533 129.151 78.7212 128.983 78.9283 128.983C79.1354 128.983 79.3033 129.151 79.3033 129.358L78.9283 129.358L78.5533 129.358ZM79.3033 127.826C79.3033 128.033 79.1354 128.201 78.9283 128.201C78.7212 128.201 78.5533 128.033 78.5533 127.826L78.9283 127.826L79.3033 127.826ZM78.5533 126.293C78.5533 126.086 78.7212 125.918 78.9283 125.918C79.1354 125.918 79.3033 126.086 79.3033 126.293L78.9283 126.293L78.5533 126.293ZM79.3033 124.761C79.3033 124.968 79.1354 125.136 78.9283 125.136C78.7212 125.136 78.5533 124.968 78.5533 124.761L78.9283 124.761L79.3033 124.761ZM78.5533 123.228C78.5533 123.021 78.7212 122.853 78.9283 122.853C79.1354 122.853 79.3033 123.021 79.3033 123.228L78.9283 123.228L78.5533 123.228ZM79.3033 121.696C79.3033 121.903 79.1354 122.071 78.9283 122.071C78.7212 122.071 78.5533 121.903 78.5533 121.696L78.9283 121.696L79.3033 121.696ZM78.5533 120.163C78.5533 119.956 78.7212 119.788 78.9283 119.788C79.1354 119.788 79.3033 119.956 79.3033 120.163L78.9283 120.163L78.5533 120.163ZM79.3033 118.63C79.3033 118.838 79.1354 119.005 78.9283 119.005C78.7212 119.005 78.5533 118.838 78.5533 118.63L78.9283 118.63L79.3033 118.63ZM78.5533 117.098C78.5533 116.891 78.7212 116.723 78.9283 116.723C79.1354 116.723 79.3033 116.891 79.3033 117.098L78.9283 117.098L78.5533 117.098ZM79.3033 115.565C79.3033 115.772 79.1354 115.94 78.9283 115.94C78.7212 115.94 78.5533 115.772 78.5533 115.565L78.9283 115.565L79.3033 115.565ZM78.5533 114.033C78.5533 113.826 78.7212 113.658 78.9283 113.658C79.1354 113.658 79.3033 113.826 79.3033 114.033L78.9283 114.033L78.5533 114.033ZM79.3033 112.5C79.3033 112.707 79.1354 112.875 78.9283 112.875C78.7212 112.875 78.5533 112.707 78.5533 112.5L78.9283 112.5L79.3033 112.5ZM78.5533 110.968C78.5533 110.76 78.7212 110.593 78.9283 110.593C79.1354 110.593 79.3033 110.76 79.3033 110.968L78.9283 110.968L78.5533 110.968ZM79.3033 109.435C79.3033 109.642 79.1354 109.81 78.9283 109.81C78.7212 109.81 78.5533 109.642 78.5533 109.435L78.9283 109.435L79.3033 109.435ZM78.5978 107.805C78.6191 107.599 78.8033 107.449 79.0093 107.47C79.2153 107.491 79.3651 107.676 79.3438 107.882L78.9708 107.843L78.5978 107.805ZM79.6664 106.342C79.6031 106.539 79.392 106.648 79.1948 106.585C78.9976 106.522 78.8889 106.311 78.9521 106.113L79.3092 106.228L79.6664 106.342ZM79.6467 104.531C79.749 104.351 79.978 104.288 80.158 104.39C80.3381 104.493 80.401 104.722 80.2987 104.902L79.9727 104.716L79.6467 104.531ZM81.213 103.621C81.0759 103.776 80.8389 103.791 80.6837 103.654C80.5284 103.517 80.5136 103.28 80.6507 103.125L80.9318 103.373L81.213 103.621ZM81.9218 101.954C82.0878 101.83 82.3228 101.865 82.4466 102.031C82.5704 102.197 82.5362 102.432 82.3702 102.555L82.146 102.255L81.9218 101.954ZM83.7215 101.751C83.5336 101.838 83.3107 101.756 83.2237 101.568C83.1367 101.38 83.2185 101.157 83.4064 101.07L83.564 101.41L83.7215 101.751ZM84.9416 100.496C85.1375 100.429 85.3508 100.533 85.418 100.729C85.4853 100.925 85.381 101.138 85.1851 101.205L85.0634 100.851L84.9416 100.496ZM86.6498 100.703C86.4539 100.77 86.2406 100.666 86.1734 100.47C86.1062 100.274 86.2104 100.06 86.4063 99.9932L86.5281 100.348L86.6498 100.703ZM87.8711 99.4904C88.067 99.4232 88.2803 99.5275 88.3475 99.7233C88.4147 99.9192 88.3104 100.133 88.1146 100.2L87.9928 99.8451L87.8711 99.4904ZM89.5793 99.697C89.3834 99.7642 89.1701 99.66 89.1029 99.4641C89.0356 99.2682 89.1399 99.0549 89.3358 98.9876L89.4575 99.3423L89.5793 99.697ZM90.8005 98.4848C90.9964 98.4176 91.2097 98.5219 91.277 98.7178C91.3442 98.9137 91.2399 99.127 91.044 99.1942L90.9223 98.8395L90.8005 98.4848ZM92.5088 98.6914C92.3129 98.7587 92.0996 98.6544 92.0323 98.4585C91.9651 98.2626 92.0694 98.0493 92.2653 97.9821L92.387 98.3367L92.5088 98.6914ZM93.73 97.4793C93.9259 97.412 94.1392 97.5163 94.2064 97.7122C94.2737 97.9081 94.1694 98.1214 93.9735 98.1887L93.8517 97.834L93.73 97.4793ZM95.4382 97.6859C95.2423 97.7531 95.029 97.6488 94.9618 97.4529C94.8945 97.257 94.9988 97.0437 95.1947 96.9765L95.3165 97.3312L95.4382 97.6859ZM52.0246 168.776L52.0246 168.401L52.8123 168.401L52.8123 168.776L52.8123 169.151L52.0246 169.151L52.0246 168.776ZM54.3876 168.776L54.3876 168.401L55.9629 168.401L55.9629 168.776L55.9629 169.151L54.3876 169.151L54.3876 168.776ZM57.5382 168.776L57.5382 168.401L59.1135 168.401L59.1135 168.776L59.1135 169.151L57.5382 169.151L57.5382 168.776ZM60.6888 168.776L60.6888 168.401L62.2641 168.401L62.2641 168.776L62.2641 169.151L60.6888 169.151L60.6888 168.776ZM63.8394 168.776L63.8394 168.401L65.4147 168.401L65.4147 168.776L65.4147 169.151L63.8394 169.151L63.8394 168.776ZM66.99 168.776L66.99 168.401L68.5653 168.401L68.5653 168.776L68.5653 169.151L66.99 169.151L66.99 168.776ZM70.1407 168.776L70.1407 168.401L70.9283 168.401L70.9283 168.776L70.9283 169.151L70.1407 169.151L70.1407 168.776ZM70.9283 168.776L70.9283 168.401C71.1808 168.401 71.4304 168.389 71.6764 168.365L71.7127 168.738L71.7491 169.112C71.4789 169.138 71.2051 169.151 70.9283 169.151L70.9283 168.776ZM73.2514 168.434L73.1426 168.075C73.6247 167.929 74.0865 167.736 74.5231 167.503L74.7002 167.833L74.8772 168.164C74.3976 168.421 73.89 168.632 73.3601 168.793L73.2514 168.434ZM76.0035 166.961L75.7655 166.671C76.1515 166.354 76.5058 166 76.8229 165.614L77.1126 165.852L77.4024 166.09C77.0542 166.513 76.6653 166.902 76.2416 167.25L76.0035 166.961ZM77.9851 164.548L77.6545 164.371C77.8884 163.935 78.0809 163.473 78.2269 162.991L78.5858 163.099L78.9447 163.208C78.7842 163.738 78.5726 164.246 78.3157 164.725L77.9851 164.548ZM78.8903 161.561L78.5171 161.524C78.541 161.278 78.5533 161.029 78.5533 160.776L78.9283 160.776L79.3033 160.776C79.3033 161.053 79.2899 161.327 79.2636 161.597L78.8903 161.561ZM78.9283 160.776L78.5533 160.776L78.5533 160.01L78.9283 160.01L79.3033 160.01L79.3033 160.776L78.9283 160.776ZM78.9283 158.477L78.5533 158.477L78.5533 156.945L78.9283 156.945L79.3033 156.945L79.3033 158.477L78.9283 158.477ZM78.9283 155.412L78.5533 155.412L78.5533 153.88L78.9283 153.88L79.3033 153.88L79.3033 155.412L78.9283 155.412ZM78.9283 152.347L78.5533 152.347L78.5533 150.815L78.9283 150.815L79.3033 150.815L79.3033 152.347L78.9283 152.347ZM78.9283 149.282L78.5533 149.282L78.5533 147.749L78.9283 147.749L79.3033 147.749L79.3033 149.282L78.9283 149.282ZM78.9283 146.217L78.5533 146.217L78.5533 144.684L78.9283 144.684L79.3033 144.684L79.3033 146.217L78.9283 146.217ZM78.9283 143.152L78.5533 143.152L78.5533 141.619L78.9283 141.619L79.3033 141.619L79.3033 143.152L78.9283 143.152ZM78.9283 140.087L78.5533 140.087L78.5533 138.554L78.9283 138.554L79.3033 138.554L79.3033 140.087L78.9283 140.087ZM78.9283 137.021L78.5533 137.021L78.5533 135.489L78.9283 135.489L79.3033 135.489L79.3033 137.021L78.9283 137.021ZM78.9283 133.956L78.5533 133.956L78.5533 132.424L78.9283 132.424L79.3033 132.424L79.3033 133.956L78.9283 133.956ZM78.9283 130.891L78.5533 130.891L78.5533 129.358L78.9283 129.358L79.3033 129.358L79.3033 130.891L78.9283 130.891ZM78.9283 127.826L78.5533 127.826L78.5533 126.293L78.9283 126.293L79.3033 126.293L79.3033 127.826L78.9283 127.826ZM78.9283 124.761L78.5533 124.761L78.5533 123.228L78.9283 123.228L79.3033 123.228L79.3033 124.761L78.9283 124.761ZM78.9283 121.696L78.5533 121.696L78.5533 120.163L78.9283 120.163L79.3033 120.163L79.3033 121.696L78.9283 121.696ZM78.9283 118.63L78.5533 118.63L78.5533 117.098L78.9283 117.098L79.3033 117.098L79.3033 118.63L78.9283 118.63ZM78.9283 115.565L78.5533 115.565L78.5533 114.033L78.9283 114.033L79.3033 114.033L79.3033 115.565L78.9283 115.565ZM78.9283 112.5L78.5533 112.5L78.5533 110.968L78.9283 110.968L79.3033 110.968L79.3033 112.5L78.9283 112.5ZM78.9283 109.435L78.5533 109.435L78.5533 108.669L78.9283 108.669L79.3033 108.669L79.3033 109.435L78.9283 109.435ZM78.9283 108.669L78.5533 108.669C78.5533 108.378 78.5683 108.089 78.5978 107.805L78.9708 107.843L79.3438 107.882C79.317 108.141 79.3033 108.404 79.3033 108.669L78.9283 108.669ZM79.3092 106.228L78.9521 106.113C79.1293 105.561 79.3626 105.031 79.6467 104.531L79.9727 104.716L80.2987 104.902C80.04 105.357 79.8276 105.839 79.6664 106.342L79.3092 106.228ZM80.9318 103.373L80.6507 103.125C81.031 102.694 81.4566 102.301 81.9218 101.954L82.146 102.255L82.3702 102.555C81.9467 102.871 81.5593 103.229 81.213 103.621L80.9318 103.373ZM83.564 101.41L83.4064 101.07C83.6663 100.95 83.9341 100.842 84.2092 100.747L84.331 101.102L84.4527 101.457C84.2021 101.543 83.9581 101.641 83.7215 101.751L83.564 101.41ZM84.331 101.102L84.2092 100.747L84.9416 100.496L85.0634 100.851L85.1851 101.205L84.4527 101.457L84.331 101.102ZM86.5281 100.348L86.4063 99.9932L87.8711 99.4904L87.9928 99.8451L88.1146 100.2L86.6498 100.703L86.5281 100.348ZM89.4575 99.3423L89.3358 98.9876L90.8005 98.4848L90.9223 98.8395L91.044 99.1942L89.5793 99.697L89.4575 99.3423ZM92.387 98.3367L92.2653 97.9821L93.73 97.4793L93.8517 97.834L93.9735 98.1887L92.5088 98.6914L92.387 98.3367ZM95.3165 97.3312L95.1947 96.9765L95.9271 96.7251L96.0488 97.0798L96.1706 97.4345L95.4382 97.6859L95.3165 97.3312Z" fill="#7E98DE"/>
<path d="M40.6973 36.6985V24.4355" stroke="#C97A3D" stroke-linecap="round" stroke-linejoin="round"/>
<path d="M18.0586 24.4355V36.6985" stroke="#C97A3D" stroke-linecap="round" stroke-linejoin="round"/>
<path d="M36.8347 13.1162H21.9222C20.6375 13.1162 19.4773 13.8237 18.9785 14.912L16.4257 20.4858C15.5661 22.3612 16.9934 24.486 19.2079 24.5538C19.2472 24.5538 19.2865 24.5538 19.3258 24.5538C21.177 24.5538 22.6774 23.0693 22.6774 21.4745C22.6774 23.0663 24.1785 24.5538 26.0297 24.5538C27.8809 24.5538 29.3784 23.1754 29.3784 21.4745C29.3784 23.0663 30.8789 24.5538 32.7301 24.5538C34.5814 24.5538 36.0824 23.1754 36.0824 21.4745C36.0824 23.1754 37.5828 24.5538 39.4341 24.5538C39.4734 24.5538 39.5117 24.5538 39.549 24.5538C41.7634 24.4848 43.1908 22.36 42.3312 20.4858L39.7784 14.912C39.2796 13.8237 38.1193 13.1162 36.8347 13.1162Z" stroke="#C97A3D" stroke-linecap="round" stroke-linejoin="round"/>
<path d="M17.4307 37.6416L41.3295 37.6416" stroke="#C97A3D" stroke-linecap="round" stroke-linejoin="round"/>
<path d="M25.7661 37.0177V29.4136C25.7661 29.0951 25.9081 28.7897 26.1608 28.5646C26.4136 28.3394 26.7564 28.2129 27.1138 28.2129H30.7076C31.065 28.2129 31.4078 28.3394 31.6606 28.5646C31.9133 28.7897 32.0553 29.0951 32.0553 29.4136V37.0177" stroke="#C97A3D" stroke-linecap="round" stroke-linejoin="round"/>
<circle cx="114.916" cy="98.3371" r="10.0627" fill="white"/>
<path d="M113.553 83.4512C105.982 83.4512 99.8213 89.6115 99.8213 97.1834C99.8213 104.755 105.982 110.916 113.553 110.916C121.125 110.916 127.286 104.755 127.286 97.1834C127.286 89.6115 121.125 83.4512 113.553 83.4512ZM113.553 104.572C113.292 104.572 113.037 104.494 112.82 104.349C112.603 104.204 112.434 103.998 112.334 103.757C112.234 103.515 112.207 103.25 112.258 102.994C112.309 102.738 112.435 102.502 112.62 102.318C112.804 102.133 113.04 102.007 113.296 101.956C113.552 101.905 113.817 101.931 114.059 102.031C114.3 102.131 114.506 102.301 114.651 102.518C114.796 102.735 114.874 102.99 114.874 103.251C114.874 103.601 114.735 103.937 114.487 104.185C114.24 104.433 113.904 104.572 113.553 104.572ZM114.987 91.2917L114.608 99.3462C114.608 99.6263 114.497 99.895 114.299 100.093C114.101 100.291 113.832 100.402 113.552 100.402C113.272 100.402 113.003 100.291 112.805 100.093C112.607 99.895 112.496 99.6263 112.496 99.3462L112.117 91.2957V91.2924C112.109 91.0989 112.14 90.9057 112.208 90.7245C112.276 90.5433 112.38 90.3778 112.514 90.2379C112.648 90.0981 112.809 89.9868 112.987 89.9108C113.165 89.8347 113.357 89.7956 113.551 89.7956C113.744 89.7956 113.936 89.8347 114.114 89.9108C114.292 89.9868 114.453 90.0981 114.587 90.2379C114.721 90.3778 114.826 90.5433 114.894 90.7245C114.962 90.9057 114.993 91.0989 114.985 91.2924L114.987 91.2917Z" fill="#C97A3D"/>
<path d="M121.065 80.1678L123.112 73.1808" stroke="#C97A3D" stroke-linecap="round"/>
<path d="M127.178 84.042L132.072 78.6509" stroke="#C97A3D" stroke-linecap="round"/>
<path d="M130.6 89.1605L137.601 87.1633" stroke="#C97A3D" stroke-linecap="round"/>
<defs>
<filter id="filter0_d_3264_1251" x="0" y="0" width="58.7666" height="58.7666" filterUnits="userSpaceOnUse" color-interpolation-filters="sRGB">
<feFlood flood-opacity="0" result="BackgroundImageFix"/>
<feColorMatrix in="SourceAlpha" type="matrix" values="0 0 0 0 0 0 0 0 0 0 0 0 0 0 0 0 0 0 127 0" result="hardAlpha"/>
<feOffset dy="4"/>
<feGaussianBlur stdDeviation="4"/>
<feComposite in2="hardAlpha" operator="out"/>
<feColorMatrix type="matrix" values="0 0 0 0 0.262745 0 0 0 0 0.380392 0 0 0 0 0.933333 0 0 0 0.25 0"/>
<feBlend mode="normal" in2="BackgroundImageFix" result="effect1_dropShadow_3264_1251"/>
<feBlend mode="normal" in="SourceGraphic" in2="effect1_dropShadow_3264_1251" result="shape"/>
</filter>
<filter id="filter1_d_3264_1251" x="0" y="70.4385" width="58.7666" height="58.7666" filterUnits="userSpaceOnUse" color-interpolation-filters="sRGB">
<feFlood flood-opacity="0" result="BackgroundImageFix"/>
<feColorMatrix in="SourceAlpha" type="matrix" values="0 0 0 0 0 0 0 0 0 0 0 0 0 0 0 0 0 0 127 0" result="hardAlpha"/>
<feOffset dy="4"/>
<feGaussianBlur stdDeviation="4"/>
<feComposite in2="hardAlpha" operator="out"/>
<feColorMatrix type="matrix" values="0 0 0 0 0.262745 0 0 0 0 0.380392 0 0 0 0 0.933333 0 0 0 0.25 0"/>
<feBlend mode="normal" in2="BackgroundImageFix" result="effect1_dropShadow_3264_1251"/>
<feBlend mode="normal" in="SourceGraphic" in2="effect1_dropShadow_3264_1251" result="shape"/>
</filter>
<filter id="filter2_d_3264_1251" x="0" y="140.877" width="58.7666" height="58.7666" filterUnits="userSpaceOnUse" color-interpolation-filters="sRGB">
<feFlood flood-opacity="0" result="BackgroundImageFix"/>
<feColorMatrix in="SourceAlpha" type="matrix" values="0 0 0 0 0 0 0 0 0 0 0 0 0 0 0 0 0 0 127 0" result="hardAlpha"/>
<feOffset dy="4"/>
<feGaussianBlur stdDeviation="4"/>
<feComposite in2="hardAlpha" operator="out"/>
<feColorMatrix type="matrix" values="0 0 0 0 0.262745 0 0 0 0 0.380392 0 0 0 0 0.933333 0 0 0 0.25 0"/>
<feBlend mode="normal" in2="BackgroundImageFix" result="effect1_dropShadow_3264_1251"/>
<feBlend mode="normal" in="SourceGraphic" in2="effect1_dropShadow_3264_1251" result="shape"/>
</filter>
<filter id="filter3_d_3264_1251" x="138.362" y="25.8799" width="156.638" height="144.753" filterUnits="userSpaceOnUse" color-interpolation-filters="sRGB">
<feFlood flood-opacity="0" result="BackgroundImageFix"/>
<feColorMatrix in="SourceAlpha" type="matrix" values="0 0 0 0 0 0 0 0 0 0 0 0 0 0 0 0 0 0 127 0" result="hardAlpha"/>
<feOffset dy="4"/>
<feGaussianBlur stdDeviation="4"/>
<feComposite in2="hardAlpha" operator="out"/>
<feColorMatrix type="matrix" values="0 0 0 0 0.262745 0 0 0 0 0.380392 0 0 0 0 0.933333 0 0 0 0.25 0"/>
<feBlend mode="normal" in2="BackgroundImageFix" result="effect1_dropShadow_3264_1251"/>
<feBlend mode="normal" in="SourceGraphic" in2="effect1_dropShadow_3264_1251" result="shape"/>
</filter>
<clipPath id="clip0_3264_1251">
<rect width="12.0504" height="12.0504" rx="1" transform="matrix(-1 0 0 1 221.798 111.091)" fill="white"/>
</clipPath>
</defs>
</svg>
