<svg width="202" height="192" viewBox="0 0 202 192" fill="none" xmlns="http://www.w3.org/2000/svg">
<g filter="url(#filter0_d_3264_1397)">
<rect x="8.125" y="130.076" width="49.0353" height="49.0353" rx="3.875" fill="white" stroke="#E0E6FF" stroke-width="0.25"/>
</g>
<rect x="8.125" y="130.076" width="49.0353" height="49.0353" rx="3.875" fill="white" stroke="#E0E6FF" stroke-width="0.25"/>
<g filter="url(#filter1_d_3264_1397)">
<rect x="76.0293" y="130.076" width="49.0353" height="49.0353" rx="3.875" fill="white" stroke="#E0E6FF" stroke-width="0.25"/>
</g>
<g filter="url(#filter2_d_3264_1397)">
<rect x="143.934" y="130.076" width="49.0353" height="49.0353" rx="3.875" fill="white" stroke="#E0E6FF" stroke-width="0.25"/>
</g>
<rect x="17.0122" y="138.963" width="32.3568" height="28.6018" rx="3.75" fill="#F5F8FF" stroke="#4361EE" stroke-width="0.5"/>
<rect x="35.4754" y="144.36" width="11.0827" height="0.391153" rx="0.195576" fill="#E4ECFD" stroke="#D0D9FF" stroke-width="0.391153"/>
<rect x="19.7351" y="157.551" width="11.0827" height="0.391153" rx="0.195576" fill="#E4ECFD" stroke="#D0D9FF" stroke-width="0.391153"/>
<rect x="35.0125" y="157.551" width="11.0827" height="0.391153" rx="0.195576" fill="#B1BFFD" stroke="#D0D9FF" stroke-width="0.391153"/>
<rect x="35.4754" y="146.447" width="7.95344" height="0.391153" rx="0.195576" fill="#D0D9FF" stroke="#D0D9FF" stroke-width="0.391153"/>
<rect x="35.4754" y="142.274" width="7.95344" height="0.391153" rx="0.195576" fill="#E4ECFD" stroke="#D0D9FF" stroke-width="0.391153"/>
<rect x="19.7351" y="159.636" width="7.95344" height="0.391153" rx="0.195576" fill="#E4ECFD" stroke="#D0D9FF" stroke-width="0.391153"/>
<rect x="35.0125" y="159.636" width="7.95344" height="0.391153" rx="0.195576" fill="#B1BFFD" stroke="#D0D9FF" stroke-width="0.391153"/>
<rect x="35.4754" y="148.532" width="11.0827" height="0.391153" rx="0.195576" fill="#D0D9FF" stroke="#D0D9FF" stroke-width="0.391153"/>
<rect x="19.7351" y="161.722" width="11.0827" height="0.391153" rx="0.195576" fill="#E4ECFD" stroke="#D0D9FF" stroke-width="0.391153"/>
<rect x="35.0125" y="161.722" width="11.0827" height="0.391153" rx="0.195576" fill="#B1BFFD" stroke="#D0D9FF" stroke-width="0.391153"/>
<rect x="35.4754" y="150.617" width="3.78114" height="0.391153" rx="0.195576" fill="#D0D9FF" stroke="#D0D9FF" stroke-width="0.391153"/>
<rect x="19.7351" y="163.809" width="3.78114" height="0.391153" rx="0.195576" fill="#E4ECFD" stroke="#D0D9FF" stroke-width="0.391153"/>
<rect x="35.0125" y="163.809" width="3.78114" height="0.391153" rx="0.195576" fill="#B1BFFD" stroke="#D0D9FF" stroke-width="0.391153"/>
<path d="M30.9387 141.729H21.1013C20.5796 141.729 20.0795 141.937 19.7107 142.305C19.3418 142.674 19.1344 143.174 19.1338 143.696V151.566C19.1344 152.088 19.3418 152.588 19.7107 152.957C20.0795 153.325 20.5796 153.533 21.1013 153.533H30.9387C31.4603 153.533 31.9604 153.325 32.3293 152.957C32.6981 152.588 32.9056 152.088 32.9062 151.566V143.696C32.9056 143.174 32.6981 142.674 32.3293 142.305C31.9604 141.937 31.4603 141.729 30.9387 141.729ZM28.4793 143.696C28.7712 143.696 29.0565 143.783 29.2991 143.945C29.5418 144.107 29.7309 144.337 29.8426 144.607C29.9543 144.877 29.9835 145.173 29.9266 145.459C29.8697 145.746 29.7291 146.009 29.5228 146.215C29.3164 146.421 29.0535 146.562 28.7672 146.619C28.481 146.676 28.1843 146.647 27.9146 146.535C27.645 146.423 27.4146 146.234 27.2524 145.991C27.0903 145.749 27.0037 145.463 27.0037 145.172C27.0041 144.78 27.1597 144.405 27.4364 144.129C27.713 143.852 28.0881 143.696 28.4793 143.696ZM21.1013 152.55C20.8404 152.55 20.5901 152.446 20.4057 152.262C20.2212 152.077 20.1175 151.827 20.1175 151.566V149.487L23.0331 146.895C23.3144 146.646 23.6802 146.513 24.0561 146.524C24.4319 146.535 24.7895 146.688 25.0559 146.954L27.0526 148.946L23.449 152.55H21.1013ZM31.9224 151.566C31.9224 151.827 31.8188 152.077 31.6343 152.262C31.4498 152.446 31.1996 152.55 30.9387 152.55H24.8404L28.5731 148.817C28.8374 148.592 29.1728 148.468 29.5197 148.468C29.8666 148.467 30.2026 148.589 30.468 148.812L31.9224 150.024V151.566Z" fill="#B2C3FF"/>
<rect x="84.916" y="138.963" width="32.3568" height="28.6018" rx="3.75" fill="#F5F8FF" stroke="#4361EE" stroke-width="0.5"/>
<rect x="103.38" y="144.36" width="11.0827" height="0.391153" rx="0.195576" fill="#E4ECFD" stroke="#D0D9FF" stroke-width="0.391153"/>
<rect x="88.1472" y="142.195" width="11.0827" height="0.391153" rx="0.195576" fill="#E4ECFD" stroke="#D0D9FF" stroke-width="0.391153"/>
<rect x="102.916" y="157.551" width="11.0827" height="0.391153" rx="0.195576" fill="#E4ECFD" stroke="#D0D9FF" stroke-width="0.391153"/>
<rect x="103.38" y="146.447" width="7.95344" height="0.391153" rx="0.195576" fill="#E4ECFD" stroke="#D0D9FF" stroke-width="0.391153"/>
<rect x="103.38" y="142.274" width="7.95344" height="0.391153" rx="0.195576" fill="#E4ECFD" stroke="#D0D9FF" stroke-width="0.391153"/>
<rect x="88.1472" y="144.28" width="7.95344" height="0.391153" rx="0.195576" fill="#E4ECFD" stroke="#D0D9FF" stroke-width="0.391153"/>
<rect x="102.916" y="159.636" width="7.95344" height="0.391153" rx="0.195576" fill="#E4ECFD" stroke="#D0D9FF" stroke-width="0.391153"/>
<rect x="103.38" y="148.532" width="11.0827" height="0.391153" rx="0.195576" fill="#E4ECFD" stroke="#D0D9FF" stroke-width="0.391153"/>
<rect x="88.1472" y="146.365" width="11.0827" height="0.391153" rx="0.195576" fill="#E4ECFD" stroke="#D0D9FF" stroke-width="0.391153"/>
<rect x="102.916" y="161.722" width="11.0827" height="0.391153" rx="0.195576" fill="#E4ECFD" stroke="#D0D9FF" stroke-width="0.391153"/>
<rect x="103.38" y="150.617" width="3.78114" height="0.391153" rx="0.195576" fill="#E4ECFD" stroke="#D0D9FF" stroke-width="0.391153"/>
<rect x="88.1472" y="148.452" width="3.78114" height="0.391153" rx="0.195576" fill="#E4ECFD" stroke="#D0D9FF" stroke-width="0.391153"/>
<rect x="102.916" y="163.809" width="3.78114" height="0.391153" rx="0.195576" fill="#E4ECFD" stroke="#D0D9FF" stroke-width="0.391153"/>
<rect x="152.82" y="138.963" width="32.3568" height="28.6018" rx="3.75" fill="#F5F8FF" stroke="#4361EE" stroke-width="0.5"/>
<rect x="171.283" y="144.36" width="11.0827" height="0.391153" rx="0.195576" fill="#E4ECFD" stroke="#D0D9FF" stroke-width="0.391153"/>
<rect x="155.544" y="157.551" width="11.0827" height="0.391153" rx="0.195576" fill="#E4ECFD" stroke="#D0D9FF" stroke-width="0.391153"/>
<rect x="171.283" y="146.447" width="7.95344" height="0.391153" rx="0.195576" fill="#E4ECFD" stroke="#D0D9FF" stroke-width="0.391153"/>
<rect x="171.283" y="142.274" width="7.95344" height="0.391153" rx="0.195576" fill="#E4ECFD" stroke="#D0D9FF" stroke-width="0.391153"/>
<rect x="155.544" y="159.636" width="7.95344" height="0.391153" rx="0.195576" fill="#E4ECFD" stroke="#D0D9FF" stroke-width="0.391153"/>
<rect x="171.283" y="148.532" width="11.0827" height="0.391153" rx="0.195576" fill="#E4ECFD" stroke="#D0D9FF" stroke-width="0.391153"/>
<rect x="155.544" y="161.722" width="11.0827" height="0.391153" rx="0.195576" fill="#E4ECFD" stroke="#D0D9FF" stroke-width="0.391153"/>
<rect x="171.283" y="150.617" width="3.78114" height="0.391153" rx="0.195576" fill="#E4ECFD" stroke="#D0D9FF" stroke-width="0.391153"/>
<rect x="155.544" y="163.809" width="3.78114" height="0.391153" rx="0.195576" fill="#E4ECFD" stroke="#D0D9FF" stroke-width="0.391153"/>
<path d="M166.747 141.729H156.909C156.388 141.729 155.888 141.937 155.519 142.305C155.15 142.674 154.942 143.174 154.942 143.696V151.566C154.942 152.088 155.15 152.588 155.519 152.957C155.888 153.325 156.388 153.533 156.909 153.533H166.747C167.268 153.533 167.769 153.325 168.137 152.957C168.506 152.588 168.714 152.088 168.714 151.566V143.696C168.714 143.174 168.506 142.674 168.137 142.305C167.769 141.937 167.268 141.729 166.747 141.729ZM164.287 143.696C164.579 143.696 164.865 143.783 165.107 143.945C165.35 144.107 165.539 144.337 165.651 144.607C165.762 144.877 165.792 145.173 165.735 145.459C165.678 145.746 165.537 146.009 165.331 146.215C165.124 146.421 164.862 146.562 164.575 146.619C164.289 146.676 163.992 146.647 163.723 146.535C163.453 146.423 163.223 146.234 163.061 145.991C162.898 145.749 162.812 145.463 162.812 145.172C162.812 144.78 162.968 144.405 163.244 144.129C163.521 143.852 163.896 143.696 164.287 143.696ZM156.909 152.55C156.648 152.55 156.398 152.446 156.214 152.262C156.029 152.077 155.926 151.827 155.926 151.566V149.487L158.841 146.895C159.123 146.646 159.488 146.513 159.864 146.524C160.24 146.535 160.598 146.688 160.864 146.954L162.861 148.946L159.257 152.55H156.909ZM167.731 151.566C167.731 151.827 167.627 152.077 167.442 152.262C167.258 152.446 167.008 152.55 166.747 152.55H160.649L164.381 148.817C164.645 148.592 164.981 148.468 165.328 148.468C165.675 148.467 166.011 148.589 166.276 148.812L167.731 150.024V151.566Z" fill="#B2C3FF"/>
<rect x="171.189" y="156.236" width="10.9523" height="8.76182" rx="1" fill="#D1DAFF"/>
<circle cx="33.7478" cy="179.794" r="8.22384" fill="#FEF2E9"/>
<line x1="37.1123" y1="176.543" x2="29.9893" y2="183.666" stroke="#C97A3D"/>
<line x1="37.5053" y1="183.759" x2="30.3822" y2="176.636" stroke="#C97A3D"/>
<circle cx="100.556" cy="179.794" r="8.22384" fill="#FEF2E9"/>
<line x1="103.921" y1="176.543" x2="96.7978" y2="183.666" stroke="#C97A3D"/>
<line x1="104.314" y1="183.759" x2="97.1908" y2="176.636" stroke="#C97A3D"/>
<circle cx="168.451" cy="179.785" r="8.21421" fill="#DFF5F0"/>
<path d="M172.217 176.771L166.946 182.795L164.688 180.536" stroke="#56A78A" stroke-miterlimit="10" stroke-linecap="square"/>
<rect x="87.9517" y="152.951" width="12.0475" height="12.0475" rx="2" fill="#D1DAFF"/>
<g filter="url(#filter3_d_3264_1397)">
<rect x="82.6006" y="64.3623" width="36.9878" height="36.9878" rx="3.875" fill="white" stroke="#E0E6FF" stroke-width="0.25"/>
</g>
<circle cx="101.094" cy="82.8561" r="12.0475" fill="#E4ECFD"/>
<path d="M95.719 85.9033H94.611L97.8155 77.176H98.9065L102.111 85.9033H101.003L98.3951 78.5567H98.3269L95.719 85.9033ZM96.128 82.4942H100.594V83.4317H96.128V82.4942ZM105.727 77.176V85.9033H104.67V77.176H105.727Z" fill="#4361EE"/>
<g clip-path="url(#clip0_3264_1397)">
<path d="M106.075 74.1959C106.018 74.1959 105.962 74.1786 105.915 74.1463C105.868 74.114 105.832 74.0682 105.811 74.015L105.487 73.1709C105.48 73.1525 105.469 73.1357 105.455 73.1218C105.441 73.1078 105.424 73.0969 105.406 73.0899L104.562 72.7653C104.509 72.7448 104.463 72.7086 104.43 72.6616C104.398 72.6145 104.381 72.5588 104.381 72.5017C104.381 72.4447 104.398 72.3889 104.43 72.3419C104.463 72.2949 104.509 72.2587 104.562 72.2382L105.406 71.9136C105.424 71.9065 105.441 71.8957 105.455 71.8817C105.469 71.8677 105.48 71.851 105.487 71.8325L105.809 70.996C105.827 70.9468 105.858 70.9034 105.899 70.8706C105.94 70.8378 105.989 70.8167 106.041 70.8097C106.103 70.8021 106.167 70.8156 106.22 70.848C106.274 70.8804 106.316 70.9298 106.339 70.9885L106.663 71.8325C106.67 71.851 106.681 71.8677 106.695 71.8817C106.709 71.8957 106.726 71.9065 106.744 71.9136L107.588 72.2382C107.641 72.2587 107.687 72.2949 107.72 72.3419C107.752 72.3889 107.769 72.4447 107.769 72.5017C107.769 72.5588 107.752 72.6145 107.72 72.6616C107.687 72.7086 107.641 72.7448 107.588 72.7653L106.744 73.0899C106.726 73.0969 106.709 73.1078 106.695 73.1218C106.681 73.1357 106.67 73.1525 106.663 73.1709L106.339 74.015C106.318 74.0682 106.282 74.114 106.235 74.1463C106.188 74.1786 106.132 74.1959 106.075 74.1959Z" fill="#4361EE"/>
<path d="M110.404 78.4752C110.325 78.4751 110.248 78.4512 110.183 78.4064C110.117 78.3616 110.067 78.2981 110.039 78.2243L109.481 76.773C109.471 76.7474 109.456 76.7242 109.436 76.7048C109.417 76.6854 109.394 76.6703 109.368 76.6605L107.917 76.1022C107.843 76.0737 107.779 76.0237 107.735 75.9585C107.69 75.8934 107.666 75.8162 107.666 75.7372C107.666 75.6581 107.69 75.581 107.735 75.5158C107.779 75.4507 107.843 75.4006 107.917 75.3722L109.368 74.8138C109.394 74.804 109.417 74.7889 109.436 74.7695C109.456 74.7502 109.471 74.7269 109.481 74.7014L110.035 73.2603C110.06 73.1921 110.104 73.1321 110.16 73.0866C110.217 73.0411 110.285 73.0118 110.357 73.0019C110.443 72.9914 110.531 73.0101 110.606 73.0551C110.68 73.1 110.738 73.1686 110.769 73.25L111.328 74.7014C111.337 74.7269 111.352 74.7502 111.372 74.7695C111.391 74.7889 111.414 74.804 111.44 74.8138L112.892 75.3722C112.965 75.4006 113.029 75.4507 113.073 75.5158C113.118 75.581 113.142 75.6581 113.142 75.7372C113.142 75.8162 113.118 75.8934 113.073 75.9585C113.029 76.0237 112.965 76.0737 112.892 76.1022L111.44 76.6605C111.414 76.6703 111.391 76.6854 111.372 76.7048C111.352 76.7242 111.337 76.7474 111.328 76.773L110.769 78.2243C110.741 78.2981 110.691 78.3616 110.626 78.4064C110.56 78.4512 110.483 78.4751 110.404 78.4752Z" fill="#4361EE"/>
</g>
<g filter="url(#filter4_d_3264_1397)">
<rect x="82.6006" y="4.125" width="36.9878" height="36.9878" rx="3.875" fill="white" stroke="#E0E6FF" stroke-width="0.25"/>
<path d="M101.095 32.4763L108.639 27.9847C108.715 27.9396 108.761 27.858 108.761 27.7698V18.2495L100.931 13.9267C100.853 13.8838 100.758 13.8853 100.682 13.9308L93.4282 18.2495V27.7698C93.4282 27.858 93.4746 27.9396 93.5503 27.9847L101.095 32.4763ZM93.4282 18.2495L101.095 22.6415M108.761 18.2495L101.095 22.6415M101.095 22.6415V32.4763" stroke="#4361EE" stroke-linecap="round"/>
</g>
<path d="M31.1904 127.761C31.1904 128.866 32.0859 129.761 33.1904 129.761C34.295 129.761 35.1904 128.866 35.1904 127.761C35.1904 126.656 34.295 125.761 33.1904 125.761C32.0859 125.761 31.1904 126.656 31.1904 127.761ZM101.385 110.475C101.516 110.314 101.492 110.078 101.332 109.947C101.171 109.816 100.935 109.84 100.804 110L101.095 110.237L101.385 110.475ZM97.9294 114.113L98.2199 114.35L97.9294 114.113ZM33.5654 127.084C33.5654 126.877 33.3975 126.709 33.1904 126.709C32.9833 126.709 32.8154 126.877 32.8154 127.084H33.1904H33.5654ZM32.8154 125.729C32.8154 125.936 32.9833 126.104 33.1904 126.104C33.3975 126.104 33.5654 125.936 33.5654 125.729H33.1904H32.8154ZM33.6016 124.304C33.6217 124.098 33.4709 123.914 33.2647 123.894C33.0586 123.874 32.8752 124.025 32.8552 124.231L33.2284 124.268L33.6016 124.304ZM33.174 122.62C33.114 122.818 33.226 123.028 33.4242 123.088C33.6224 123.148 33.8318 123.036 33.8918 122.838L33.5329 122.729L33.174 122.62ZM34.4642 121.457C34.562 121.275 34.4933 121.047 34.3107 120.95C34.1281 120.852 33.9009 120.921 33.8031 121.103L34.1336 121.28L34.4642 121.457ZM34.7164 119.739C34.5849 119.899 34.608 120.135 34.768 120.267C34.9281 120.398 35.1644 120.375 35.2959 120.215L35.0061 119.977L34.7164 119.739ZM36.3533 119.157C36.5133 119.026 36.5364 118.79 36.405 118.63C36.2735 118.47 36.0372 118.447 35.8771 118.578L36.1152 118.868L36.3533 119.157ZM37.2415 117.665C37.059 117.762 36.9902 117.99 37.088 118.172C37.1858 118.355 37.4131 118.424 37.5956 118.326L37.4186 117.995L37.2415 117.665ZM38.9761 117.753C39.1743 117.693 39.2863 117.484 39.2263 117.286C39.1662 117.088 38.9568 116.976 38.7586 117.036L38.8674 117.395L38.9761 117.753ZM40.3697 116.717C40.1635 116.737 40.0127 116.92 40.0328 117.126C40.0528 117.332 40.2362 117.483 40.4423 117.463L40.406 117.09L40.3697 116.717ZM41.9337 117.427C42.1408 117.427 42.3087 117.259 42.3087 117.052C42.3087 116.845 42.1408 116.677 41.9337 116.677V117.052V117.427ZM43.4203 116.677C43.2132 116.677 43.0453 116.845 43.0453 117.052C43.0453 117.259 43.2132 117.427 43.4203 117.427V117.052V116.677ZM44.9068 117.427C45.1139 117.427 45.2818 117.259 45.2818 117.052C45.2818 116.845 45.1139 116.677 44.9068 116.677V117.052V117.427ZM46.3934 116.677C46.1863 116.677 46.0184 116.845 46.0184 117.052C46.0184 117.259 46.1863 117.427 46.3934 117.427V117.052V116.677ZM47.8799 117.427C48.087 117.427 48.2549 117.259 48.2549 117.052C48.2549 116.845 48.087 116.677 47.8799 116.677V117.052V117.427ZM49.3665 116.677C49.1594 116.677 48.9915 116.845 48.9915 117.052C48.9915 117.259 49.1594 117.427 49.3665 117.427V117.052V116.677ZM50.8531 117.427C51.0602 117.427 51.2281 117.259 51.2281 117.052C51.2281 116.845 51.0602 116.677 50.8531 116.677V117.052V117.427ZM52.3396 116.677C52.1325 116.677 51.9646 116.845 51.9646 117.052C51.9646 117.259 52.1325 117.427 52.3396 117.427V117.052V116.677ZM53.8262 117.427C54.0333 117.427 54.2012 117.259 54.2012 117.052C54.2012 116.845 54.0333 116.677 53.8262 116.677V117.052V117.427ZM55.3127 116.677C55.1056 116.677 54.9377 116.845 54.9377 117.052C54.9377 117.259 55.1056 117.427 55.3127 117.427V117.052V116.677ZM56.7993 117.427C57.0064 117.427 57.1743 117.259 57.1743 117.052C57.1743 116.845 57.0064 116.677 56.7993 116.677V117.052V117.427ZM58.2858 116.677C58.0787 116.677 57.9108 116.845 57.9108 117.052C57.9108 117.259 58.0787 117.427 58.2858 117.427V117.052V116.677ZM59.7724 117.427C59.9795 117.427 60.1474 117.259 60.1474 117.052C60.1474 116.845 59.9795 116.677 59.7724 116.677V117.052V117.427ZM61.259 116.677C61.0519 116.677 60.884 116.845 60.884 117.052C60.884 117.259 61.0519 117.427 61.259 117.427V117.052V116.677ZM62.7455 117.427C62.9526 117.427 63.1205 117.259 63.1205 117.052C63.1205 116.845 62.9526 116.677 62.7455 116.677V117.052V117.427ZM64.2321 116.677C64.025 116.677 63.8571 116.845 63.8571 117.052C63.8571 117.259 64.025 117.427 64.2321 117.427V117.052V116.677ZM65.7186 117.427C65.9257 117.427 66.0936 117.259 66.0936 117.052C66.0936 116.845 65.9257 116.677 65.7186 116.677V117.052V117.427ZM67.2052 116.677C66.9981 116.677 66.8302 116.845 66.8302 117.052C66.8302 117.259 66.9981 117.427 67.2052 117.427V117.052V116.677ZM68.6918 117.427C68.8989 117.427 69.0668 117.259 69.0668 117.052C69.0668 116.845 68.8989 116.677 68.6918 116.677V117.052V117.427ZM70.1783 116.677C69.9712 116.677 69.8033 116.845 69.8033 117.052C69.8033 117.259 69.9712 117.427 70.1783 117.427V117.052V116.677ZM71.6649 117.427C71.872 117.427 72.0399 117.259 72.0399 117.052C72.0399 116.845 71.872 116.677 71.6649 116.677V117.052V117.427ZM73.1514 116.677C72.9443 116.677 72.7764 116.845 72.7764 117.052C72.7764 117.259 72.9443 117.427 73.1514 117.427V117.052V116.677ZM74.638 117.427C74.8451 117.427 75.013 117.259 75.013 117.052C75.013 116.845 74.8451 116.677 74.638 116.677V117.052V117.427ZM76.1245 116.677C75.9174 116.677 75.7495 116.845 75.7495 117.052C75.7495 117.259 75.9174 117.427 76.1245 117.427V117.052V116.677ZM77.6111 117.427C77.8182 117.427 77.9861 117.259 77.9861 117.052C77.9861 116.845 77.8182 116.677 77.6111 116.677V117.052V117.427ZM79.0977 116.677C78.8906 116.677 78.7227 116.845 78.7227 117.052C78.7227 117.259 78.8906 117.427 79.0977 117.427V117.052V116.677ZM80.5842 117.427C80.7913 117.427 80.9592 117.259 80.9592 117.052C80.9592 116.845 80.7913 116.677 80.5842 116.677V117.052V117.427ZM82.0708 116.677C81.8637 116.677 81.6958 116.845 81.6958 117.052C81.6958 117.259 81.8637 117.427 82.0708 117.427V117.052V116.677ZM83.5573 117.427C83.7644 117.427 83.9323 117.259 83.9323 117.052C83.9323 116.845 83.7644 116.677 83.5573 116.677V117.052V117.427ZM85.0439 116.677C84.8368 116.677 84.6689 116.845 84.6689 117.052C84.6689 117.259 84.8368 117.427 85.0439 117.427V117.052V116.677ZM86.5304 117.427C86.7376 117.427 86.9054 117.259 86.9054 117.052C86.9054 116.845 86.7376 116.677 86.5304 116.677V117.052V117.427ZM88.017 116.677C87.8099 116.677 87.642 116.845 87.642 117.052C87.642 117.259 87.8099 117.427 88.017 117.427V117.052V116.677ZM89.5036 117.427C89.7107 117.427 89.8786 117.259 89.8786 117.052C89.8786 116.845 89.7107 116.677 89.5036 116.677V117.052V117.427ZM90.9901 116.677C90.783 116.677 90.6151 116.845 90.6151 117.052C90.6151 117.259 90.783 117.427 90.9901 117.427V117.052V116.677ZM92.659 117.376C92.8648 117.353 93.0131 117.168 92.9902 116.962C92.9674 116.756 92.782 116.608 92.5761 116.63L92.6175 117.003L92.659 117.376ZM94.2203 116.26C94.0245 116.328 93.9205 116.541 93.9881 116.737C94.0556 116.933 94.2691 117.037 94.4649 116.969L94.3426 116.615L94.2203 116.26ZM96.1373 116.176C96.3135 116.067 96.368 115.836 96.2591 115.66C96.1502 115.483 95.9192 115.429 95.743 115.538L95.9402 115.857L96.1373 116.176ZM97.0698 114.499C96.9218 114.644 96.9194 114.881 97.0644 115.029C97.2093 115.177 97.4468 115.179 97.5947 115.034L97.3322 114.766L97.0698 114.499ZM98.6155 113.865C98.7465 113.705 98.7227 113.469 98.5623 113.338C98.4019 113.207 98.1656 113.231 98.0346 113.391L98.3251 113.628L98.6155 113.865ZM98.8259 112.422C98.6949 112.583 98.7187 112.819 98.8791 112.95C99.0395 113.081 99.2758 113.057 99.4068 112.897L99.1164 112.659L98.8259 112.422ZM100.198 111.928C100.329 111.767 100.305 111.531 100.145 111.4C99.9845 111.269 99.7482 111.293 99.6172 111.453L99.9076 111.691L100.198 111.928ZM100.408 110.485C100.277 110.645 100.301 110.881 100.462 111.012C100.622 111.143 100.858 111.119 100.989 110.959L100.699 110.722L100.408 110.485ZM33.1904 127.761H33.5654V127.084H33.1904H32.8154V127.761H33.1904ZM33.1904 125.729H33.5654V125.052H33.1904H32.8154V125.729H33.1904ZM33.1904 125.052H33.5654C33.5654 124.8 33.5777 124.55 33.6016 124.304L33.2284 124.268L32.8552 124.231C32.8289 124.501 32.8154 124.775 32.8154 125.052H33.1904ZM33.5329 122.729L33.8918 122.838C34.0379 122.356 34.2304 121.894 34.4642 121.457L34.1336 121.28L33.8031 121.103C33.5462 121.583 33.3346 122.09 33.174 122.62L33.5329 122.729ZM35.0061 119.977L35.2959 120.215C35.613 119.829 35.9673 119.475 36.3533 119.157L36.1152 118.868L35.8771 118.578C35.4534 118.926 35.0645 119.315 34.7164 119.739L35.0061 119.977ZM37.4186 117.995L37.5956 118.326C38.0322 118.092 38.4941 117.899 38.9761 117.753L38.8674 117.395L38.7586 117.036C38.2288 117.196 37.7211 117.408 37.2415 117.665L37.4186 117.995ZM40.406 117.09L40.4423 117.463C40.6883 117.439 40.9379 117.427 41.1904 117.427V117.052V116.677C40.9136 116.677 40.6398 116.691 40.3697 116.717L40.406 117.09ZM41.1904 117.052V117.427H41.9337V117.052V116.677H41.1904V117.052ZM43.4203 117.052V117.427H44.9068V117.052V116.677H43.4203V117.052ZM46.3934 117.052V117.427H47.8799V117.052V116.677H46.3934V117.052ZM49.3665 117.052V117.427H50.8531V117.052V116.677H49.3665V117.052ZM52.3396 117.052V117.427H53.8262V117.052V116.677H52.3396V117.052ZM55.3127 117.052V117.427H56.7993V117.052V116.677H55.3127V117.052ZM58.2858 117.052V117.427H59.7724V117.052V116.677H58.2858V117.052ZM61.259 117.052V117.427H62.7455V117.052V116.677H61.259V117.052ZM64.2321 117.052V117.427H65.7186V117.052V116.677H64.2321V117.052ZM67.2052 117.052V117.427H68.6918V117.052V116.677H67.2052V117.052ZM70.1783 117.052V117.427H71.6649V117.052V116.677H70.1783V117.052ZM73.1514 117.052V117.427H74.638V117.052V116.677H73.1514V117.052ZM76.1245 117.052V117.427H77.6111V117.052V116.677H76.1245V117.052ZM79.0977 117.052V117.427H80.5842V117.052V116.677H79.0977V117.052ZM82.0708 117.052V117.427H83.5573V117.052V116.677H82.0708V117.052ZM85.0439 117.052V117.427H86.5304V117.052V116.677H85.0439V117.052ZM88.017 117.052V117.427H89.5036V117.052V116.677H88.017V117.052ZM90.9901 117.052V117.427H91.7334V117.052V116.677H90.9901V117.052ZM91.7334 117.052V117.427C92.0444 117.427 92.3533 117.41 92.659 117.376L92.6175 117.003L92.5761 116.63C92.2978 116.661 92.0166 116.677 91.7334 116.677V117.052ZM94.3426 116.615L94.4649 116.969C95.0499 116.767 95.6109 116.501 96.1373 116.176L95.9402 115.857L95.743 115.538C95.2637 115.834 94.7529 116.076 94.2203 116.26L94.3426 116.615ZM97.3322 114.766L97.5947 115.034C97.8144 114.819 98.0232 114.591 98.2199 114.35L97.9294 114.113L97.639 113.875C97.4599 114.095 97.2698 114.303 97.0698 114.499L97.3322 114.766ZM97.9294 114.113L98.2199 114.35L98.6155 113.865L98.3251 113.628L98.0346 113.391L97.639 113.875L97.9294 114.113ZM99.1164 112.659L99.4068 112.897L100.198 111.928L99.9076 111.691L99.6172 111.453L98.8259 112.422L99.1164 112.659ZM100.699 110.722L100.989 110.959L101.385 110.475L101.095 110.237L100.804 110L100.408 110.485L100.699 110.722Z" fill="#7E98DE"/>
<path d="M172.094 127.761C172.094 128.866 171.198 129.761 170.094 129.761C168.989 129.761 168.094 128.866 168.094 127.761C168.094 126.656 168.989 125.761 170.094 125.761C171.198 125.761 172.094 126.656 172.094 127.761ZM104.351 114.161L104.639 113.922L104.351 114.161ZM169.719 127.084C169.719 126.877 169.887 126.709 170.094 126.709C170.301 126.709 170.469 126.877 170.469 127.084H170.094H169.719ZM170.469 125.729C170.469 125.936 170.301 126.104 170.094 126.104C169.887 126.104 169.719 125.936 169.719 125.729H170.094H170.469ZM169.683 124.304C169.662 124.098 169.813 123.914 170.019 123.894C170.226 123.874 170.409 124.025 170.429 124.231L170.056 124.268L169.683 124.304ZM170.11 122.62C170.17 122.818 170.058 123.028 169.86 123.088C169.662 123.148 169.452 123.036 169.392 122.838L169.751 122.729L170.11 122.62ZM168.82 121.457C168.722 121.275 168.791 121.047 168.973 120.95C169.156 120.852 169.383 120.921 169.481 121.103L169.151 121.28L168.82 121.457ZM168.568 119.739C168.699 119.899 168.676 120.135 168.516 120.267C168.356 120.398 168.12 120.375 167.988 120.215L168.278 119.977L168.568 119.739ZM166.931 119.157C166.771 119.026 166.748 118.79 166.879 118.63C167.011 118.47 167.247 118.447 167.407 118.578L167.169 118.868L166.931 119.157ZM166.043 117.665C166.225 117.762 166.294 117.99 166.196 118.172C166.098 118.355 165.871 118.424 165.689 118.326L165.866 117.995L166.043 117.665ZM164.308 117.753C164.11 117.693 163.998 117.484 164.058 117.286C164.118 117.088 164.327 116.976 164.526 117.036L164.417 117.395L164.308 117.753ZM162.915 116.717C163.121 116.737 163.271 116.92 163.251 117.126C163.231 117.332 163.048 117.483 162.842 117.463L162.878 117.09L162.915 116.717ZM161.335 117.427C161.128 117.427 160.96 117.259 160.96 117.052C160.96 116.845 161.128 116.677 161.335 116.677V117.052V117.427ZM159.818 116.677C160.025 116.677 160.193 116.845 160.193 117.052C160.193 117.259 160.025 117.427 159.818 117.427V117.052V116.677ZM158.301 117.427C158.093 117.427 157.926 117.259 157.926 117.052C157.926 116.845 158.093 116.677 158.301 116.677V117.052V117.427ZM156.783 116.677C156.99 116.677 157.158 116.845 157.158 117.052C157.158 117.259 156.99 117.427 156.783 117.427V117.052V116.677ZM155.266 117.427C155.059 117.427 154.891 117.259 154.891 117.052C154.891 116.845 155.059 116.677 155.266 116.677V117.052V117.427ZM153.749 116.677C153.956 116.677 154.124 116.845 154.124 117.052C154.124 117.259 153.956 117.427 153.749 117.427V117.052V116.677ZM152.232 117.427C152.024 117.427 151.857 117.259 151.857 117.052C151.857 116.845 152.024 116.677 152.232 116.677V117.052V117.427ZM150.714 116.677C150.921 116.677 151.089 116.845 151.089 117.052C151.089 117.259 150.921 117.427 150.714 117.427V117.052V116.677ZM149.197 117.427C148.99 117.427 148.822 117.259 148.822 117.052C148.822 116.845 148.99 116.677 149.197 116.677V117.052V117.427ZM147.68 116.677C147.887 116.677 148.055 116.845 148.055 117.052C148.055 117.259 147.887 117.427 147.68 117.427V117.052V116.677ZM146.163 117.427C145.955 117.427 145.788 117.259 145.788 117.052C145.788 116.845 145.955 116.677 146.163 116.677V117.052V117.427ZM144.645 116.677C144.852 116.677 145.02 116.845 145.02 117.052C145.02 117.259 144.852 117.427 144.645 117.427V117.052V116.677ZM143.128 117.427C142.921 117.427 142.753 117.259 142.753 117.052C142.753 116.845 142.921 116.677 143.128 116.677V117.052V117.427ZM141.611 116.677C141.818 116.677 141.986 116.845 141.986 117.052C141.986 117.259 141.818 117.427 141.611 117.427V117.052V116.677ZM140.093 117.427C139.886 117.427 139.718 117.259 139.718 117.052C139.718 116.845 139.886 116.677 140.093 116.677V117.052V117.427ZM138.576 116.677C138.783 116.677 138.951 116.845 138.951 117.052C138.951 117.259 138.783 117.427 138.576 117.427V117.052V116.677ZM137.059 117.427C136.852 117.427 136.684 117.259 136.684 117.052C136.684 116.845 136.852 116.677 137.059 116.677V117.052V117.427ZM135.542 116.677C135.749 116.677 135.917 116.845 135.917 117.052C135.917 117.259 135.749 117.427 135.542 117.427V117.052V116.677ZM134.024 117.427C133.817 117.427 133.649 117.259 133.649 117.052C133.649 116.845 133.817 116.677 134.024 116.677V117.052V117.427ZM132.507 116.677C132.714 116.677 132.882 116.845 132.882 117.052C132.882 117.259 132.714 117.427 132.507 117.427V117.052V116.677ZM130.99 117.427C130.783 117.427 130.615 117.259 130.615 117.052C130.615 116.845 130.783 116.677 130.99 116.677V117.052V117.427ZM129.473 116.677C129.68 116.677 129.848 116.845 129.848 117.052C129.848 117.259 129.68 117.427 129.473 117.427V117.052V116.677ZM127.955 117.427C127.748 117.427 127.58 117.259 127.58 117.052C127.58 116.845 127.748 116.677 127.955 116.677V117.052V117.427ZM126.438 116.677C126.645 116.677 126.813 116.845 126.813 117.052C126.813 117.259 126.645 117.427 126.438 117.427V117.052V116.677ZM124.921 117.427C124.714 117.427 124.546 117.259 124.546 117.052C124.546 116.845 124.714 116.677 124.921 116.677V117.052V117.427ZM123.404 116.677C123.611 116.677 123.779 116.845 123.779 117.052C123.779 117.259 123.611 117.427 123.404 117.427V117.052V116.677ZM121.886 117.427C121.679 117.427 121.511 117.259 121.511 117.052C121.511 116.845 121.679 116.677 121.886 116.677V117.052V117.427ZM120.369 116.677C120.576 116.677 120.744 116.845 120.744 117.052C120.744 117.259 120.576 117.427 120.369 117.427V117.052V116.677ZM118.852 117.427C118.645 117.427 118.477 117.259 118.477 117.052C118.477 116.845 118.645 116.677 118.852 116.677V117.052V117.427ZM117.335 116.677C117.542 116.677 117.71 116.845 117.71 117.052C117.71 117.259 117.542 117.427 117.335 117.427V117.052V116.677ZM115.817 117.427C115.61 117.427 115.442 117.259 115.442 117.052C115.442 116.845 115.61 116.677 115.817 116.677V117.052V117.427ZM114.3 116.677C114.507 116.677 114.675 116.845 114.675 117.052C114.675 117.259 114.507 117.427 114.3 117.427V117.052V116.677ZM112.783 117.427C112.576 117.427 112.408 117.259 112.408 117.052C112.408 116.845 112.576 116.677 112.783 116.677V117.052V117.427ZM111.266 116.677C111.473 116.677 111.641 116.845 111.641 117.052C111.641 117.259 111.473 117.427 111.266 117.427V117.052V116.677ZM109.59 117.377C109.384 117.354 109.235 117.169 109.258 116.963C109.281 116.757 109.466 116.609 109.672 116.631L109.631 117.004L109.59 117.377ZM108.041 116.267C108.237 116.334 108.342 116.548 108.275 116.744C108.208 116.94 107.995 117.044 107.799 116.977L107.92 116.622L108.041 116.267ZM106.138 116.197C105.961 116.089 105.906 115.858 106.014 115.682C106.122 115.505 106.353 115.449 106.529 115.557L106.334 115.877L106.138 116.197ZM105.208 114.535C105.357 114.679 105.361 114.916 105.217 115.065C105.073 115.214 104.836 115.218 104.687 115.074L104.947 114.805L105.208 114.535ZM103.655 113.91C103.523 113.751 103.545 113.514 103.704 113.382C103.864 113.25 104.1 113.272 104.232 113.431L103.944 113.671L103.655 113.91ZM103.418 112.45C103.55 112.61 103.529 112.846 103.369 112.978C103.21 113.111 102.973 113.089 102.841 112.929L103.13 112.69L103.418 112.45ZM102.027 111.948C101.895 111.789 101.917 111.552 102.076 111.42C102.235 111.288 102.472 111.31 102.604 111.469L102.316 111.709L102.027 111.948ZM101.79 110.488C101.922 110.648 101.9 110.884 101.741 111.016C101.582 111.149 101.345 111.127 101.213 110.967L101.501 110.728L101.79 110.488ZM170.094 127.761H169.719V127.084H170.094H170.469V127.761H170.094ZM170.094 125.729H169.719V125.052H170.094H170.469V125.729H170.094ZM170.094 125.052H169.719C169.719 124.8 169.706 124.55 169.683 124.304L170.056 124.268L170.429 124.231C170.455 124.501 170.469 124.775 170.469 125.052H170.094ZM169.751 122.729L169.392 122.838C169.246 122.356 169.054 121.894 168.82 121.457L169.151 121.28L169.481 121.103C169.738 121.583 169.95 122.09 170.11 122.62L169.751 122.729ZM168.278 119.977L167.988 120.215C167.671 119.829 167.317 119.475 166.931 119.157L167.169 118.868L167.407 118.578C167.831 118.926 168.22 119.315 168.568 119.739L168.278 119.977ZM165.866 117.995L165.689 118.326C165.252 118.092 164.79 117.899 164.308 117.753L164.417 117.395L164.526 117.036C165.055 117.196 165.563 117.408 166.043 117.665L165.866 117.995ZM162.878 117.09L162.842 117.463C162.596 117.439 162.346 117.427 162.094 117.427V117.052V116.677C162.371 116.677 162.644 116.691 162.915 116.717L162.878 117.09ZM162.094 117.052V117.427H161.335V117.052V116.677H162.094V117.052ZM159.818 117.052V117.427H158.301V117.052V116.677H159.818V117.052ZM156.783 117.052V117.427H155.266V117.052V116.677H156.783V117.052ZM153.749 117.052V117.427H152.232V117.052V116.677H153.749V117.052ZM150.714 117.052V117.427H149.197V117.052V116.677H150.714V117.052ZM147.68 117.052V117.427H146.163V117.052V116.677H147.68V117.052ZM144.645 117.052V117.427H143.128V117.052V116.677H144.645V117.052ZM141.611 117.052V117.427H140.093V117.052V116.677H141.611V117.052ZM138.576 117.052V117.427H137.059V117.052V116.677H138.576V117.052ZM135.542 117.052V117.427H134.024V117.052V116.677H135.542V117.052ZM132.507 117.052V117.427H130.99V117.052V116.677H132.507V117.052ZM129.473 117.052V117.427H127.955V117.052V116.677H129.473V117.052ZM126.438 117.052V117.427H124.921V117.052V116.677H126.438V117.052ZM123.404 117.052V117.427H121.886V117.052V116.677H123.404V117.052ZM120.369 117.052V117.427H118.852V117.052V116.677H120.369V117.052ZM117.335 117.052V117.427H115.817V117.052V116.677H117.335V117.052ZM114.3 117.052V117.427H112.783V117.052V116.677H114.3V117.052ZM111.266 117.052V117.427H110.507V117.052V116.677H111.266V117.052ZM110.507 117.052V117.427C110.199 117.427 109.893 117.41 109.59 117.377L109.631 117.004L109.672 116.631C109.948 116.662 110.226 116.677 110.507 116.677V117.052ZM107.92 116.622L107.799 116.977C107.218 116.779 106.661 116.517 106.138 116.197L106.334 115.877L106.529 115.557C107.006 115.849 107.513 116.087 108.041 116.267L107.92 116.622ZM104.947 114.805L104.687 115.074C104.468 114.863 104.259 114.638 104.062 114.401L104.351 114.161L104.639 113.922C104.819 114.138 105.009 114.342 105.208 114.535L104.947 114.805ZM104.351 114.161L104.062 114.401L103.655 113.91L103.944 113.671L104.232 113.431L104.639 113.922L104.351 114.161ZM103.13 112.69L102.841 112.929L102.027 111.948L102.316 111.709L102.604 111.469L103.418 112.45L103.13 112.69ZM101.501 110.728L101.213 110.967L100.806 110.477L101.094 110.237L101.383 109.998L101.79 110.488L101.501 110.728Z" fill="#7E98DE"/>
<path d="M101.47 101.476C101.47 101.268 101.302 101.101 101.095 101.101C100.888 101.101 100.72 101.268 100.72 101.476L101.095 101.476L101.47 101.476ZM99.0947 127.761C99.0947 128.866 99.9902 129.761 101.095 129.761C102.199 129.761 103.095 128.866 103.095 127.761C103.095 126.656 102.199 125.761 101.095 125.761C99.9902 125.761 99.0947 126.656 99.0947 127.761ZM100.72 102.206C100.72 102.413 100.888 102.581 101.095 102.581C101.302 102.581 101.47 102.413 101.47 102.206L101.095 102.206L100.72 102.206ZM101.47 103.666C101.47 103.459 101.302 103.291 101.095 103.291C100.888 103.291 100.72 103.459 100.72 103.666L101.095 103.666L101.47 103.666ZM100.72 105.126C100.72 105.333 100.888 105.501 101.095 105.501C101.302 105.501 101.47 105.333 101.47 105.126L101.095 105.126L100.72 105.126ZM101.47 106.587C101.47 106.38 101.302 106.212 101.095 106.212C100.888 106.212 100.72 106.38 100.72 106.587L101.095 106.587L101.47 106.587ZM100.72 108.047C100.72 108.254 100.888 108.422 101.095 108.422C101.302 108.422 101.47 108.254 101.47 108.047L101.095 108.047L100.72 108.047ZM101.47 109.507C101.47 109.3 101.302 109.132 101.095 109.132C100.888 109.132 100.72 109.3 100.72 109.507L101.095 109.507L101.47 109.507ZM100.72 110.968C100.72 111.175 100.888 111.343 101.095 111.343C101.302 111.343 101.47 111.175 101.47 110.968L101.095 110.968L100.72 110.968ZM101.47 112.428C101.47 112.221 101.302 112.053 101.095 112.053C100.888 112.053 100.72 112.221 100.72 112.428L101.095 112.428L101.47 112.428ZM100.72 113.888C100.72 114.095 100.888 114.263 101.095 114.263C101.302 114.263 101.47 114.095 101.47 113.888L101.095 113.888L100.72 113.888ZM101.47 115.348C101.47 115.141 101.302 114.973 101.095 114.973C100.888 114.973 100.72 115.141 100.72 115.348L101.095 115.348L101.47 115.348ZM100.72 116.809C100.72 117.016 100.888 117.184 101.095 117.184C101.302 117.184 101.47 117.016 101.47 116.809L101.095 116.809L100.72 116.809ZM101.47 118.269C101.47 118.062 101.302 117.894 101.095 117.894C100.888 117.894 100.72 118.062 100.72 118.269L101.095 118.269L101.47 118.269ZM100.72 119.729C100.72 119.936 100.888 120.104 101.095 120.104C101.302 120.104 101.47 119.936 101.47 119.729L101.095 119.729L100.72 119.729ZM101.47 121.19C101.47 120.983 101.302 120.815 101.095 120.815C100.888 120.815 100.72 120.983 100.72 121.19L101.095 121.19L101.47 121.19ZM100.72 122.65C100.72 122.857 100.888 123.025 101.095 123.025C101.302 123.025 101.47 122.857 101.47 122.65L101.095 122.65L100.72 122.65ZM101.47 124.11C101.47 123.903 101.302 123.735 101.095 123.735C100.888 123.735 100.72 123.903 100.72 124.11L101.095 124.11L101.47 124.11ZM100.72 125.571C100.72 125.778 100.888 125.946 101.095 125.946C101.302 125.946 101.47 125.778 101.47 125.571L101.095 125.571L100.72 125.571ZM101.47 127.031C101.47 126.824 101.302 126.656 101.095 126.656C100.888 126.656 100.72 126.824 100.72 127.031L101.095 127.031L101.47 127.031ZM101.095 101.476L100.72 101.476L100.72 102.206L101.095 102.206L101.47 102.206L101.47 101.476L101.095 101.476ZM101.095 103.666L100.72 103.666L100.72 105.126L101.095 105.126L101.47 105.126L101.47 103.666L101.095 103.666ZM101.095 106.587L100.72 106.587L100.72 108.047L101.095 108.047L101.47 108.047L101.47 106.587L101.095 106.587ZM101.095 109.507L100.72 109.507L100.72 110.968L101.095 110.968L101.47 110.968L101.47 109.507L101.095 109.507ZM101.095 112.428L100.72 112.428L100.72 113.888L101.095 113.888L101.47 113.888L101.47 112.428L101.095 112.428ZM101.095 115.348L100.72 115.348L100.72 116.809L101.095 116.809L101.47 116.809L101.47 115.348L101.095 115.348ZM101.095 118.269L100.72 118.269L100.72 119.729L101.095 119.729L101.47 119.729L101.47 118.269L101.095 118.269ZM101.095 121.19L100.72 121.19L100.72 122.65L101.095 122.65L101.47 122.65L101.47 121.19L101.095 121.19ZM101.095 124.11L100.72 124.11L100.72 125.571L101.095 125.571L101.47 125.571L101.47 124.11L101.095 124.11ZM101.095 127.031L100.72 127.031L100.72 127.761L101.095 127.761L101.47 127.761L101.47 127.031L101.095 127.031Z" fill="#8AA3DB"/>
<path d="M101.47 41.2373L101.47 40.8623L100.72 40.8623L100.72 41.2373L101.095 41.2373L101.47 41.2373ZM99.0947 62.0466C99.0947 63.1512 99.9902 64.0466 101.095 64.0466C102.199 64.0466 103.095 63.1512 103.095 62.0466C103.095 60.9421 102.199 60.0466 101.095 60.0466C99.9902 60.0466 99.0947 60.9421 99.0947 62.0466ZM100.72 41.9805C100.72 42.1876 100.888 42.3555 101.095 42.3555C101.302 42.3555 101.47 42.1876 101.47 41.9805L101.095 41.9805L100.72 41.9805ZM101.47 43.4669C101.47 43.2598 101.302 43.0919 101.095 43.0919C100.888 43.0919 100.72 43.2598 100.72 43.4669L101.095 43.4669L101.47 43.4669ZM100.72 44.9533C100.72 45.1604 100.888 45.3283 101.095 45.3283C101.302 45.3283 101.47 45.1604 101.47 44.9533L101.095 44.9533L100.72 44.9533ZM101.47 46.4396C101.47 46.2325 101.302 46.0646 101.095 46.0646C100.888 46.0646 100.72 46.2325 100.72 46.4396L101.095 46.4396L101.47 46.4396ZM100.72 47.926C100.72 48.1331 100.888 48.301 101.095 48.301C101.302 48.301 101.47 48.1331 101.47 47.926L101.095 47.926L100.72 47.926ZM101.47 49.4124C101.47 49.2053 101.302 49.0374 101.095 49.0374C100.888 49.0374 100.72 49.2053 100.72 49.4124L101.095 49.4124L101.47 49.4124ZM100.72 50.8988C100.72 51.1059 100.888 51.2738 101.095 51.2738C101.302 51.2738 101.47 51.1059 101.47 50.8988L101.095 50.8988L100.72 50.8988ZM101.47 52.3852C101.47 52.1781 101.302 52.0102 101.095 52.0102C100.888 52.0102 100.72 52.1781 100.72 52.3852L101.095 52.3852L101.47 52.3852ZM100.72 53.8715C100.72 54.0786 100.888 54.2465 101.095 54.2465C101.302 54.2465 101.47 54.0786 101.47 53.8715L101.095 53.8715L100.72 53.8715ZM101.47 55.3579C101.47 55.1508 101.302 54.9829 101.095 54.9829C100.888 54.9829 100.72 55.1508 100.72 55.3579L101.095 55.3579L101.47 55.3579ZM100.72 56.8443C100.72 57.0514 100.888 57.2193 101.095 57.2193C101.302 57.2193 101.47 57.0514 101.47 56.8443L101.095 56.8443L100.72 56.8443ZM101.47 58.3307C101.47 58.1236 101.302 57.9557 101.095 57.9557C100.888 57.9557 100.72 58.1236 100.72 58.3307L101.095 58.3307L101.47 58.3307ZM100.72 59.8171C100.72 60.0242 100.888 60.1921 101.095 60.1921C101.302 60.1921 101.47 60.0242 101.47 59.8171L101.095 59.8171L100.72 59.8171ZM101.47 61.3034C101.47 61.0963 101.302 60.9284 101.095 60.9284C100.888 60.9284 100.72 61.0963 100.72 61.3034L101.095 61.3034L101.47 61.3034ZM101.095 41.2373L100.72 41.2373L100.72 41.9805L101.095 41.9805L101.47 41.9805L101.47 41.2373L101.095 41.2373ZM101.095 43.4669L100.72 43.4669L100.72 44.9533L101.095 44.9533L101.47 44.9533L101.47 43.4669L101.095 43.4669ZM101.095 46.4396L100.72 46.4396L100.72 47.926L101.095 47.926L101.47 47.926L101.47 46.4396L101.095 46.4396ZM101.095 49.4124L100.72 49.4124L100.72 50.8988L101.095 50.8988L101.47 50.8988L101.47 49.4124L101.095 49.4124ZM101.095 52.3852L100.72 52.3852L100.72 53.8715L101.095 53.8715L101.47 53.8715L101.47 52.3852L101.095 52.3852ZM101.095 55.3579L100.72 55.3579L100.72 56.8443L101.095 56.8443L101.47 56.8443L101.47 55.3579L101.095 55.3579ZM101.095 58.3307L100.72 58.3307L100.72 59.8171L101.095 59.8171L101.47 59.8171L101.47 58.3307L101.095 58.3307ZM101.095 61.3034L100.72 61.3034L100.72 62.0466L101.095 62.0466L101.47 62.0466L101.47 61.3034L101.095 61.3034Z" fill="#8AA3DB"/>
<defs>
<filter id="filter0_d_3264_1397" x="0" y="125.951" width="65.2852" height="65.2852" filterUnits="userSpaceOnUse" color-interpolation-filters="sRGB">
<feFlood flood-opacity="0" result="BackgroundImageFix"/>
<feColorMatrix in="SourceAlpha" type="matrix" values="0 0 0 0 0 0 0 0 0 0 0 0 0 0 0 0 0 0 127 0" result="hardAlpha"/>
<feOffset dy="4"/>
<feGaussianBlur stdDeviation="4"/>
<feComposite in2="hardAlpha" operator="out"/>
<feColorMatrix type="matrix" values="0 0 0 0 0.262745 0 0 0 0 0.380392 0 0 0 0 0.933333 0 0 0 0.25 0"/>
<feBlend mode="normal" in2="BackgroundImageFix" result="effect1_dropShadow_3264_1397"/>
<feBlend mode="normal" in="SourceGraphic" in2="effect1_dropShadow_3264_1397" result="shape"/>
</filter>
<filter id="filter1_d_3264_1397" x="67.9043" y="125.951" width="65.2852" height="65.2852" filterUnits="userSpaceOnUse" color-interpolation-filters="sRGB">
<feFlood flood-opacity="0" result="BackgroundImageFix"/>
<feColorMatrix in="SourceAlpha" type="matrix" values="0 0 0 0 0 0 0 0 0 0 0 0 0 0 0 0 0 0 127 0" result="hardAlpha"/>
<feOffset dy="4"/>
<feGaussianBlur stdDeviation="4"/>
<feComposite in2="hardAlpha" operator="out"/>
<feColorMatrix type="matrix" values="0 0 0 0 0.262745 0 0 0 0 0.380392 0 0 0 0 0.933333 0 0 0 0.25 0"/>
<feBlend mode="normal" in2="BackgroundImageFix" result="effect1_dropShadow_3264_1397"/>
<feBlend mode="normal" in="SourceGraphic" in2="effect1_dropShadow_3264_1397" result="shape"/>
</filter>
<filter id="filter2_d_3264_1397" x="135.809" y="125.951" width="65.2852" height="65.2852" filterUnits="userSpaceOnUse" color-interpolation-filters="sRGB">
<feFlood flood-opacity="0" result="BackgroundImageFix"/>
<feColorMatrix in="SourceAlpha" type="matrix" values="0 0 0 0 0 0 0 0 0 0 0 0 0 0 0 0 0 0 127 0" result="hardAlpha"/>
<feOffset dy="4"/>
<feGaussianBlur stdDeviation="4"/>
<feComposite in2="hardAlpha" operator="out"/>
<feColorMatrix type="matrix" values="0 0 0 0 0.262745 0 0 0 0 0.380392 0 0 0 0 0.933333 0 0 0 0.25 0"/>
<feBlend mode="normal" in2="BackgroundImageFix" result="effect1_dropShadow_3264_1397"/>
<feBlend mode="normal" in="SourceGraphic" in2="effect1_dropShadow_3264_1397" result="shape"/>
</filter>
<filter id="filter3_d_3264_1397" x="74.4756" y="60.2373" width="53.2378" height="53.2373" filterUnits="userSpaceOnUse" color-interpolation-filters="sRGB">
<feFlood flood-opacity="0" result="BackgroundImageFix"/>
<feColorMatrix in="SourceAlpha" type="matrix" values="0 0 0 0 0 0 0 0 0 0 0 0 0 0 0 0 0 0 127 0" result="hardAlpha"/>
<feOffset dy="4"/>
<feGaussianBlur stdDeviation="4"/>
<feComposite in2="hardAlpha" operator="out"/>
<feColorMatrix type="matrix" values="0 0 0 0 0.262745 0 0 0 0 0.380392 0 0 0 0 0.933333 0 0 0 0.25 0"/>
<feBlend mode="normal" in2="BackgroundImageFix" result="effect1_dropShadow_3264_1397"/>
<feBlend mode="normal" in="SourceGraphic" in2="effect1_dropShadow_3264_1397" result="shape"/>
</filter>
<filter id="filter4_d_3264_1397" x="74.4756" y="0" width="53.2378" height="53.2373" filterUnits="userSpaceOnUse" color-interpolation-filters="sRGB">
<feFlood flood-opacity="0" result="BackgroundImageFix"/>
<feColorMatrix in="SourceAlpha" type="matrix" values="0 0 0 0 0 0 0 0 0 0 0 0 0 0 0 0 0 0 127 0" result="hardAlpha"/>
<feOffset dy="4"/>
<feGaussianBlur stdDeviation="4"/>
<feComposite in2="hardAlpha" operator="out"/>
<feColorMatrix type="matrix" values="0 0 0 0 0.262745 0 0 0 0 0.380392 0 0 0 0 0.933333 0 0 0 0.25 0"/>
<feBlend mode="normal" in2="BackgroundImageFix" result="effect1_dropShadow_3264_1397"/>
<feBlend mode="normal" in="SourceGraphic" in2="effect1_dropShadow_3264_1397" result="shape"/>
</filter>
<clipPath id="clip0_3264_1397">
<rect width="9.85705" height="9.85705" fill="white" transform="translate(104.38 70.8086)"/>
</clipPath>
</defs>
</svg>
